<svg width="304" height="91" viewBox="0 0 304 91" fill="none" xmlns="http://www.w3.org/2000/svg">
<path d="M4.464 12V1.296H5.648V12H4.464ZM0.592 2.064V0.992H9.52V2.064H0.592ZM16.7174 12V7.584C16.7174 6.92267 16.52 6.38933 16.1254 5.984C15.7414 5.568 15.2294 5.36 14.5894 5.36C14.152 5.36 13.768 5.456 13.4374 5.648C13.1067 5.84 12.8454 6.10133 12.6534 6.432C12.4614 6.76267 12.3654 7.14133 12.3654 7.568L11.8534 7.28C11.8534 6.71467 11.9867 6.208 12.2534 5.76C12.52 5.312 12.8774 4.96 13.3254 4.704C13.784 4.448 14.3067 4.32 14.8934 4.32C15.4694 4.32 15.9814 4.45333 16.4294 4.72C16.8774 4.976 17.224 5.33333 17.4694 5.792C17.7254 6.25067 17.8534 6.784 17.8534 7.392V12H16.7174ZM11.2454 12V0.672H12.3654V12H11.2454ZM23.4205 12.16C22.6632 12.16 21.9858 11.9893 21.3885 11.648C20.7912 11.3067 20.3165 10.8373 19.9645 10.24C19.6232 9.64267 19.4525 8.97067 19.4525 8.224C19.4525 7.488 19.6232 6.82667 19.9645 6.24C20.3058 5.64267 20.7698 5.17333 21.3565 4.832C21.9432 4.49067 22.5992 4.32 23.3245 4.32C24.0072 4.32 24.6098 4.47467 25.1325 4.784C25.6658 5.09333 26.0818 5.52533 26.3805 6.08C26.6898 6.624 26.8445 7.25333 26.8445 7.968C26.8445 8.05333 26.8392 8.15467 26.8285 8.272C26.8178 8.37867 26.7965 8.50667 26.7645 8.656H20.2525V7.696H26.1565L25.7565 8.048C25.7672 7.49333 25.6712 7.01867 25.4685 6.624C25.2765 6.21867 24.9938 5.90933 24.6205 5.696C24.2578 5.472 23.8152 5.36 23.2925 5.36C22.7485 5.36 22.2738 5.47733 21.8685 5.712C21.4632 5.94667 21.1432 6.27733 20.9085 6.704C20.6845 7.12 20.5725 7.616 20.5725 8.192C20.5725 8.768 20.6898 9.27467 20.9245 9.712C21.1698 10.1493 21.5058 10.4907 21.9325 10.736C22.3698 10.9813 22.8712 11.104 23.4365 11.104C23.8952 11.104 24.3165 11.024 24.7005 10.864C25.0845 10.6933 25.4098 10.4427 25.6765 10.112L26.3965 10.848C26.0445 11.264 25.6072 11.5893 25.0845 11.824C24.5725 12.048 24.0178 12.16 23.4205 12.16ZM32.2674 12V0.992H33.0994L37.8514 8.784H37.2594L42.0114 0.992H42.8434V12H41.6594V3.04L41.9314 3.104L37.9634 9.616H37.1314L33.1634 3.104L33.4354 3.04V12H32.2674ZM48.7784 12.16C48.053 12.16 47.3917 11.984 46.7944 11.632C46.2077 11.28 45.7384 10.8053 45.3864 10.208C45.045 9.61067 44.8744 8.944 44.8744 8.208C44.8744 7.48267 45.045 6.82667 45.3864 6.24C45.7384 5.65333 46.2077 5.18933 46.7944 4.848C47.3917 4.496 48.053 4.32 48.7784 4.32C49.5144 4.32 50.1757 4.49067 50.7624 4.832C51.349 5.17333 51.813 5.64267 52.1544 6.24C52.5064 6.82667 52.6824 7.48267 52.6824 8.208C52.6824 8.95467 52.5064 9.62667 52.1544 10.224C51.813 10.8107 51.349 11.28 50.7624 11.632C50.1757 11.984 49.5144 12.16 48.7784 12.16ZM48.7784 11.072C49.3117 11.072 49.781 10.9493 50.1864 10.704C50.6024 10.4587 50.9277 10.1173 51.1624 9.68C51.4077 9.24267 51.5304 8.752 51.5304 8.208C51.5304 7.664 51.4077 7.184 51.1624 6.768C50.9277 6.34133 50.6024 6.00533 50.1864 5.76C49.781 5.51467 49.3117 5.392 48.7784 5.392C48.2557 5.392 47.7864 5.51467 47.3704 5.76C46.9544 6.00533 46.629 6.34133 46.3944 6.768C46.1597 7.184 46.0424 7.664 46.0424 8.208C46.0424 8.76267 46.1597 9.25867 46.3944 9.696C46.629 10.1227 46.9544 10.4587 47.3704 10.704C47.7864 10.9493 48.2557 11.072 48.7784 11.072ZM57.6641 12.16C56.9708 12.16 56.3468 11.9893 55.7921 11.648C55.2375 11.3067 54.7948 10.8427 54.4641 10.256C54.1441 9.65867 53.9841 8.992 53.9841 8.256C53.9841 7.50933 54.1441 6.84267 54.4641 6.256C54.7948 5.65867 55.2375 5.18933 55.7921 4.848C56.3468 4.496 56.9708 4.32 57.6641 4.32C58.2295 4.32 58.7415 4.432 59.2001 4.656C59.6588 4.88 60.0375 5.2 60.3361 5.616C60.6455 6.02133 60.8268 6.50133 60.8801 7.056V9.408C60.8161 9.952 60.6348 10.432 60.3361 10.848C60.0481 11.2533 59.6748 11.5733 59.2161 11.808C58.7575 12.0427 58.2401 12.16 57.6641 12.16ZM57.8561 11.088C58.3788 11.088 58.8375 10.9707 59.2321 10.736C59.6268 10.4907 59.9361 10.1547 60.1601 9.728C60.3841 9.29067 60.4961 8.79467 60.4961 8.24C60.4961 7.67467 60.3788 7.17867 60.1441 6.752C59.9201 6.32533 59.6108 5.98933 59.2161 5.744C58.8215 5.49867 58.3628 5.376 57.8401 5.376C57.3175 5.376 56.8535 5.49867 56.4481 5.744C56.0428 5.98933 55.7228 6.33067 55.4881 6.768C55.2641 7.19467 55.1521 7.68533 55.1521 8.24C55.1521 8.79467 55.2641 9.29067 55.4881 9.728C55.7228 10.1547 56.0428 10.4907 56.4481 10.736C56.8641 10.9707 57.3335 11.088 57.8561 11.088ZM61.5521 12H60.4321V9.984L60.6561 8.128L60.4321 6.32V0.672H61.5521V12ZM67.2955 12.16C66.5382 12.16 65.8608 11.9893 65.2635 11.648C64.6662 11.3067 64.1915 10.8373 63.8395 10.24C63.4982 9.64267 63.3275 8.97067 63.3275 8.224C63.3275 7.488 63.4982 6.82667 63.8395 6.24C64.1808 5.64267 64.6448 5.17333 65.2315 4.832C65.8182 4.49067 66.4742 4.32 67.1995 4.32C67.8822 4.32 68.4848 4.47467 69.0075 4.784C69.5408 5.09333 69.9568 5.52533 70.2555 6.08C70.5648 6.624 70.7195 7.25333 70.7195 7.968C70.7195 8.05333 70.7142 8.15467 70.7035 8.272C70.6928 8.37867 70.6715 8.50667 70.6395 8.656H64.1275V7.696H70.0315L69.6315 8.048C69.6422 7.49333 69.5462 7.01867 69.3435 6.624C69.1515 6.21867 68.8688 5.90933 68.4955 5.696C68.1328 5.472 67.6902 5.36 67.1675 5.36C66.6235 5.36 66.1488 5.47733 65.7435 5.712C65.3382 5.94667 65.0182 6.27733 64.7835 6.704C64.5595 7.12 64.4475 7.616 64.4475 8.192C64.4475 8.768 64.5648 9.27467 64.7995 9.712C65.0448 10.1493 65.3808 10.4907 65.8075 10.736C66.2448 10.9813 66.7462 11.104 67.3115 11.104C67.7702 11.104 68.1915 11.024 68.5755 10.864C68.9595 10.6933 69.2848 10.4427 69.5515 10.112L70.2715 10.848C69.9195 11.264 69.4822 11.5893 68.9595 11.824C68.4475 12.048 67.8928 12.16 67.2955 12.16ZM72.4329 12V4.48H73.5529V12H72.4329ZM73.5529 7.616L73.0889 7.408C73.0889 6.45867 73.3182 5.70667 73.7769 5.152C74.2462 4.59733 74.8862 4.32 75.6969 4.32C76.0702 4.32 76.4115 4.38933 76.7209 4.528C77.0302 4.656 77.3182 4.864 77.5849 5.152L76.8489 5.936C76.6675 5.73333 76.4649 5.58933 76.2409 5.504C76.0275 5.41867 75.7822 5.376 75.5049 5.376C74.9289 5.376 74.4595 5.568 74.0969 5.952C73.7342 6.32533 73.5529 6.88 73.5529 7.616ZM84.3111 12V7.584C84.3111 6.92267 84.1138 6.38933 83.7191 5.984C83.3351 5.568 82.8231 5.36 82.1831 5.36C81.7458 5.36 81.3618 5.456 81.0311 5.648C80.7005 5.84 80.4391 6.10133 80.2471 6.432C80.0551 6.76267 79.9591 7.14133 79.9591 7.568L79.4471 7.28C79.4471 6.71467 79.5805 6.208 79.8471 5.76C80.1138 5.312 80.4711 4.96 80.9191 4.704C81.3778 4.448 81.9005 4.32 82.4871 4.32C83.0631 4.32 83.5751 4.45867 84.0231 4.736C84.4711 5.01333 84.8178 5.38667 85.0631 5.856C85.3191 6.32533 85.4471 6.83733 85.4471 7.392V12H84.3111ZM78.8391 12V4.48H79.9591V12H78.8391ZM89.9826 12L94.4946 0.992H95.3746L99.8386 12H98.5746L94.6866 2.272H95.1506L91.2306 12H89.9826ZM92.0466 9.136V8.096H97.8066V9.136H92.0466ZM101.574 12V4.48H102.694V12H101.574ZM102.694 7.616L102.23 7.408C102.23 6.45867 102.459 5.70667 102.918 5.152C103.387 4.59733 104.027 4.32 104.838 4.32C105.211 4.32 105.552 4.38933 105.862 4.528C106.171 4.656 106.459 4.864 106.726 5.152L105.99 5.936C105.808 5.73333 105.606 5.58933 105.382 5.504C105.168 5.41867 104.923 5.376 104.646 5.376C104.07 5.376 103.6 5.568 103.238 5.952C102.875 6.32533 102.694 6.88 102.694 7.616ZM109.007 12V1.312H110.127V12H109.007ZM107.103 5.488V4.48H112.015V5.488H107.103ZM122.243 12.144C121.465 12.144 120.739 12 120.067 11.712C119.395 11.424 118.809 11.024 118.307 10.512C117.806 10 117.417 9.40267 117.139 8.72C116.862 8.02667 116.723 7.28 116.723 6.48C116.723 5.68 116.862 4.93867 117.139 4.256C117.427 3.57333 117.822 2.976 118.323 2.464C118.825 1.94133 119.417 1.536 120.099 1.248C120.782 0.959999 121.523 0.815999 122.323 0.815999C123.209 0.815999 124.019 0.991999 124.755 1.344C125.502 1.696 126.115 2.192 126.595 2.832L125.779 3.648C125.395 3.104 124.905 2.688 124.307 2.4C123.71 2.10133 123.049 1.952 122.323 1.952C121.459 1.952 120.697 2.14933 120.035 2.544C119.374 2.928 118.857 3.46133 118.483 4.144C118.121 4.82667 117.939 5.61067 117.939 6.496C117.939 7.37067 118.121 8.14933 118.483 8.832C118.857 9.51467 119.363 10.0533 120.003 10.448C120.654 10.832 121.39 11.024 122.211 11.024C123.033 11.024 123.742 10.8587 124.339 10.528C124.947 10.1973 125.411 9.71733 125.731 9.088C126.062 8.45867 126.233 7.70133 126.243 6.816L126.915 7.312H122.099V6.24H127.459V6.416C127.459 7.65333 127.235 8.69867 126.787 9.552C126.35 10.4053 125.742 11.0507 124.963 11.488C124.185 11.9253 123.278 12.144 122.243 12.144ZM132.634 12.16C131.92 12.16 131.28 11.9893 130.714 11.648C130.149 11.296 129.701 10.8267 129.37 10.24C129.05 9.65333 128.89 8.992 128.89 8.256C128.89 7.50933 129.05 6.84267 129.37 6.256C129.701 5.65867 130.149 5.18933 130.714 4.848C131.28 4.496 131.914 4.32 132.618 4.32C133.194 4.32 133.706 4.43733 134.154 4.672C134.613 4.896 134.981 5.216 135.258 5.632C135.546 6.03733 135.722 6.512 135.786 7.056V9.408C135.722 9.952 135.546 10.432 135.258 10.848C134.981 11.264 134.613 11.5893 134.154 11.824C133.706 12.048 133.2 12.16 132.634 12.16ZM132.81 11.088C133.589 11.088 134.213 10.8267 134.682 10.304C135.162 9.78133 135.402 9.09333 135.402 8.24C135.402 7.67467 135.29 7.17867 135.066 6.752C134.853 6.31467 134.549 5.97867 134.154 5.744C133.77 5.49867 133.317 5.376 132.794 5.376C132.261 5.376 131.786 5.49867 131.37 5.744C130.965 5.98933 130.64 6.33067 130.394 6.768C130.16 7.19467 130.042 7.68533 130.042 8.24C130.042 8.79467 130.16 9.28533 130.394 9.712C130.64 10.1387 130.97 10.4747 131.386 10.72C131.802 10.9653 132.277 11.088 132.81 11.088ZM135.338 12V9.984L135.562 8.128L135.338 6.32V4.48H136.458V12H135.338ZM138.73 12V0.672H139.85V12H138.73ZM142.12 12V0.672H143.24V12H142.12ZM148.983 12.16C148.226 12.16 147.548 11.9893 146.951 11.648C146.354 11.3067 145.879 10.8373 145.527 10.24C145.186 9.64267 145.015 8.97067 145.015 8.224C145.015 7.488 145.186 6.82667 145.527 6.24C145.868 5.64267 146.332 5.17333 146.919 4.832C147.506 4.49067 148.162 4.32 148.887 4.32C149.57 4.32 150.172 4.47467 150.695 4.784C151.228 5.09333 151.644 5.52533 151.943 6.08C152.252 6.624 152.407 7.25333 152.407 7.968C152.407 8.05333 152.402 8.15467 152.391 8.272C152.38 8.37867 152.359 8.50667 152.327 8.656H145.815V7.696H151.719L151.319 8.048C151.33 7.49333 151.234 7.01867 151.031 6.624C150.839 6.21867 150.556 5.90933 150.183 5.696C149.82 5.472 149.378 5.36 148.855 5.36C148.311 5.36 147.836 5.47733 147.431 5.712C147.026 5.94667 146.706 6.27733 146.471 6.704C146.247 7.12 146.135 7.616 146.135 8.192C146.135 8.768 146.252 9.27467 146.487 9.712C146.732 10.1493 147.068 10.4907 147.495 10.736C147.932 10.9813 148.434 11.104 148.999 11.104C149.458 11.104 149.879 11.024 150.263 10.864C150.647 10.6933 150.972 10.4427 151.239 10.112L151.959 10.848C151.607 11.264 151.17 11.5893 150.647 11.824C150.135 12.048 149.58 12.16 148.983 12.16ZM154.12 12V4.48H155.24V12H154.12ZM155.24 7.616L154.776 7.408C154.776 6.45867 155.006 5.70667 155.464 5.152C155.934 4.59733 156.574 4.32 157.384 4.32C157.758 4.32 158.099 4.38933 158.408 4.528C158.718 4.656 159.006 4.864 159.272 5.152L158.536 5.936C158.355 5.73333 158.152 5.58933 157.928 5.504C157.715 5.41867 157.47 5.376 157.192 5.376C156.616 5.376 156.147 5.568 155.784 5.952C155.422 6.32533 155.24 6.88 155.24 7.616ZM162.804 12.032L159.508 4.48H160.74L163.396 10.784H162.932L165.732 4.48H166.98L163.444 12.032H162.804ZM160.756 15.168L162.82 10.896L163.444 12.032L161.988 15.168H160.756ZM171.886 12V4.48H173.022V12H171.886ZM172.446 2.848C172.233 2.848 172.051 2.77333 171.902 2.624C171.753 2.464 171.678 2.27733 171.678 2.064C171.678 1.84 171.753 1.65333 171.902 1.504C172.051 1.35467 172.233 1.28 172.446 1.28C172.681 1.28 172.867 1.35467 173.006 1.504C173.155 1.65333 173.23 1.84 173.23 2.064C173.23 2.27733 173.155 2.464 173.006 2.624C172.867 2.77333 172.681 2.848 172.446 2.848ZM177.596 12.16C177.191 12.16 176.802 12.1067 176.428 12C176.055 11.8827 175.714 11.7227 175.404 11.52C175.106 11.3173 174.844 11.0773 174.62 10.8L175.34 10.064C175.639 10.4267 175.975 10.6987 176.348 10.88C176.732 11.0507 177.159 11.136 177.628 11.136C178.13 11.136 178.519 11.04 178.796 10.848C179.084 10.656 179.228 10.3893 179.228 10.048C179.228 9.728 179.127 9.47733 178.924 9.296C178.722 9.11467 178.46 8.97067 178.14 8.864C177.831 8.75733 177.5 8.656 177.148 8.56C176.796 8.45333 176.46 8.32533 176.14 8.176C175.82 8.016 175.559 7.79733 175.356 7.52C175.164 7.24267 175.068 6.88 175.068 6.432C175.068 6.00533 175.17 5.63733 175.372 5.328C175.586 5.008 175.884 4.76267 176.268 4.592C176.663 4.41067 177.127 4.32 177.66 4.32C178.226 4.32 178.738 4.42133 179.196 4.624C179.655 4.82667 180.023 5.12533 180.3 5.52L179.58 6.24C179.356 5.952 179.074 5.73333 178.732 5.584C178.402 5.424 178.028 5.344 177.612 5.344C177.132 5.344 176.764 5.44 176.508 5.632C176.263 5.81333 176.14 6.05333 176.14 6.352C176.14 6.64 176.242 6.86933 176.444 7.04C176.647 7.2 176.903 7.33333 177.212 7.44C177.532 7.536 177.868 7.63733 178.22 7.744C178.572 7.84 178.908 7.97333 179.228 8.144C179.548 8.304 179.804 8.528 179.996 8.816C180.199 9.09333 180.3 9.472 180.3 9.952C180.3 10.624 180.055 11.1627 179.564 11.568C179.084 11.9627 178.428 12.16 177.596 12.16ZM186.615 12V3.2C186.615 2.67733 186.727 2.21333 186.951 1.808C187.186 1.40267 187.506 1.088 187.911 0.863999C188.327 0.629333 188.796 0.511999 189.319 0.511999C189.724 0.511999 190.082 0.586666 190.391 0.735999C190.7 0.874666 190.983 1.072 191.239 1.328L190.503 2.064C190.332 1.89333 190.151 1.77067 189.959 1.696C189.778 1.61067 189.564 1.568 189.319 1.568C188.818 1.568 188.428 1.71733 188.151 2.016C187.884 2.304 187.751 2.70933 187.751 3.232V12H186.615ZM184.727 5.488V4.48H190.263V5.488H184.727ZM191.542 12V4.48H192.662V12H191.542ZM192.662 7.616L192.198 7.408C192.198 6.45867 192.428 5.70667 192.886 5.152C193.356 4.59733 193.996 4.32 194.806 4.32C195.18 4.32 195.521 4.38933 195.83 4.528C196.14 4.656 196.428 4.864 196.694 5.152L195.958 5.936C195.777 5.73333 195.574 5.58933 195.35 5.504C195.137 5.41867 194.892 5.376 194.614 5.376C194.038 5.376 193.569 5.568 193.206 5.952C192.844 6.32533 192.662 6.88 192.662 7.616ZM201.092 12.16C200.335 12.16 199.658 11.9893 199.06 11.648C198.463 11.3067 197.988 10.8373 197.636 10.24C197.295 9.64267 197.124 8.97067 197.124 8.224C197.124 7.488 197.295 6.82667 197.636 6.24C197.978 5.64267 198.442 5.17333 199.028 4.832C199.615 4.49067 200.271 4.32 200.996 4.32C201.679 4.32 202.282 4.47467 202.804 4.784C203.338 5.09333 203.754 5.52533 204.052 6.08C204.362 6.624 204.516 7.25333 204.516 7.968C204.516 8.05333 204.511 8.15467 204.5 8.272C204.49 8.37867 204.468 8.50667 204.436 8.656H197.924V7.696H203.828L203.428 8.048C203.439 7.49333 203.343 7.01867 203.14 6.624C202.948 6.21867 202.666 5.90933 202.292 5.696C201.93 5.472 201.487 5.36 200.964 5.36C200.42 5.36 199.946 5.47733 199.54 5.712C199.135 5.94667 198.815 6.27733 198.58 6.704C198.356 7.12 198.244 7.616 198.244 8.192C198.244 8.768 198.362 9.27467 198.596 9.712C198.842 10.1493 199.178 10.4907 199.604 10.736C200.042 10.9813 200.543 11.104 201.108 11.104C201.567 11.104 201.988 11.024 202.372 10.864C202.756 10.6933 203.082 10.4427 203.348 10.112L204.068 10.848C203.716 11.264 203.279 11.5893 202.756 11.824C202.244 12.048 201.69 12.16 201.092 12.16ZM209.702 12.16C208.944 12.16 208.267 11.9893 207.67 11.648C207.072 11.3067 206.598 10.8373 206.246 10.24C205.904 9.64267 205.734 8.97067 205.734 8.224C205.734 7.488 205.904 6.82667 206.246 6.24C206.587 5.64267 207.051 5.17333 207.638 4.832C208.224 4.49067 208.88 4.32 209.606 4.32C210.288 4.32 210.891 4.47467 211.414 4.784C211.947 5.09333 212.363 5.52533 212.662 6.08C212.971 6.624 213.126 7.25333 213.126 7.968C213.126 8.05333 213.12 8.15467 213.11 8.272C213.099 8.37867 213.078 8.50667 213.046 8.656H206.534V7.696H212.438L212.038 8.048C212.048 7.49333 211.952 7.01867 211.75 6.624C211.558 6.21867 211.275 5.90933 210.902 5.696C210.539 5.472 210.096 5.36 209.574 5.36C209.03 5.36 208.555 5.47733 208.15 5.712C207.744 5.94667 207.424 6.27733 207.19 6.704C206.966 7.12 206.854 7.616 206.854 8.192C206.854 8.768 206.971 9.27467 207.206 9.712C207.451 10.1493 207.787 10.4907 208.214 10.736C208.651 10.9813 209.152 11.104 209.718 11.104C210.176 11.104 210.598 11.024 210.982 10.864C211.366 10.6933 211.691 10.4427 211.958 10.112L212.678 10.848C212.326 11.264 211.888 11.5893 211.366 11.824C210.854 12.048 210.299 12.16 209.702 12.16ZM219.445 12V1.312H220.565V12H219.445ZM217.541 5.488V4.48H222.453V5.488H217.541ZM227.138 12.16C226.412 12.16 225.751 11.984 225.154 11.632C224.567 11.28 224.098 10.8053 223.746 10.208C223.404 9.61067 223.234 8.944 223.234 8.208C223.234 7.48267 223.404 6.82667 223.746 6.24C224.098 5.65333 224.567 5.18933 225.154 4.848C225.751 4.496 226.412 4.32 227.138 4.32C227.874 4.32 228.535 4.49067 229.122 4.832C229.708 5.17333 230.172 5.64267 230.514 6.24C230.866 6.82667 231.042 7.48267 231.042 8.208C231.042 8.95467 230.866 9.62667 230.514 10.224C230.172 10.8107 229.708 11.28 229.122 11.632C228.535 11.984 227.874 12.16 227.138 12.16ZM227.138 11.072C227.671 11.072 228.14 10.9493 228.546 10.704C228.962 10.4587 229.287 10.1173 229.522 9.68C229.767 9.24267 229.89 8.752 229.89 8.208C229.89 7.664 229.767 7.184 229.522 6.768C229.287 6.34133 228.962 6.00533 228.546 5.76C228.14 5.51467 227.671 5.392 227.138 5.392C226.615 5.392 226.146 5.51467 225.73 5.76C225.314 6.00533 224.988 6.34133 224.754 6.768C224.519 7.184 224.402 7.664 224.402 8.208C224.402 8.76267 224.519 9.25867 224.754 9.696C224.988 10.1227 225.314 10.4587 225.73 10.704C226.146 10.9493 226.615 11.072 227.138 11.072ZM239.525 12.16C238.81 12.16 238.17 11.9893 237.605 11.648C237.04 11.296 236.592 10.8267 236.261 10.24C235.941 9.65333 235.781 8.992 235.781 8.256C235.781 7.50933 235.941 6.84267 236.261 6.256C236.592 5.65867 237.04 5.18933 237.605 4.848C238.17 4.496 238.805 4.32 239.509 4.32C240.085 4.32 240.597 4.43733 241.045 4.672C241.504 4.896 241.872 5.216 242.149 5.632C242.437 6.03733 242.613 6.512 242.677 7.056V9.408C242.613 9.952 242.437 10.432 242.149 10.848C241.872 11.264 241.504 11.5893 241.045 11.824C240.597 12.048 240.09 12.16 239.525 12.16ZM239.701 11.088C240.48 11.088 241.104 10.8267 241.573 10.304C242.053 9.78133 242.293 9.09333 242.293 8.24C242.293 7.67467 242.181 7.17867 241.957 6.752C241.744 6.31467 241.44 5.97867 241.045 5.744C240.661 5.49867 240.208 5.376 239.685 5.376C239.152 5.376 238.677 5.49867 238.261 5.744C237.856 5.98933 237.53 6.33067 237.285 6.768C237.05 7.19467 236.933 7.68533 236.933 8.24C236.933 8.79467 237.05 9.28533 237.285 9.712C237.53 10.1387 237.861 10.4747 238.277 10.72C238.693 10.9653 239.168 11.088 239.701 11.088ZM242.229 12V9.984L242.453 8.128L242.229 6.32V4.48H243.349V12H242.229ZM245.62 12V0.672H246.74V12H245.62ZM249.011 12V0.672H250.131V12H249.011ZM258.463 12L254.991 4.48H256.239L259.167 11.056H258.463L261.407 4.48H262.623L259.119 12H258.463ZM264.027 12V4.48H265.163V12H264.027ZM264.587 2.848C264.373 2.848 264.192 2.77333 264.043 2.624C263.893 2.464 263.819 2.27733 263.819 2.064C263.819 1.84 263.893 1.65333 264.043 1.504C264.192 1.35467 264.373 1.28 264.587 1.28C264.821 1.28 265.008 1.35467 265.147 1.504C265.296 1.65333 265.371 1.84 265.371 2.064C265.371 2.27733 265.296 2.464 265.147 2.624C265.008 2.77333 264.821 2.848 264.587 2.848ZM269.737 12.16C269.332 12.16 268.942 12.1067 268.569 12C268.196 11.8827 267.854 11.7227 267.545 11.52C267.246 11.3173 266.985 11.0773 266.761 10.8L267.481 10.064C267.78 10.4267 268.116 10.6987 268.489 10.88C268.873 11.0507 269.3 11.136 269.769 11.136C270.27 11.136 270.66 11.04 270.937 10.848C271.225 10.656 271.369 10.3893 271.369 10.048C271.369 9.728 271.268 9.47733 271.065 9.296C270.862 9.11467 270.601 8.97067 270.281 8.864C269.972 8.75733 269.641 8.656 269.289 8.56C268.937 8.45333 268.601 8.32533 268.281 8.176C267.961 8.016 267.7 7.79733 267.497 7.52C267.305 7.24267 267.209 6.88 267.209 6.432C267.209 6.00533 267.31 5.63733 267.513 5.328C267.726 5.008 268.025 4.76267 268.409 4.592C268.804 4.41067 269.268 4.32 269.801 4.32C270.366 4.32 270.878 4.42133 271.337 4.624C271.796 4.82667 272.164 5.12533 272.441 5.52L271.721 6.24C271.497 5.952 271.214 5.73333 270.873 5.584C270.542 5.424 270.169 5.344 269.753 5.344C269.273 5.344 268.905 5.44 268.649 5.632C268.404 5.81333 268.281 6.05333 268.281 6.352C268.281 6.64 268.382 6.86933 268.585 7.04C268.788 7.2 269.044 7.33333 269.353 7.44C269.673 7.536 270.009 7.63733 270.361 7.744C270.713 7.84 271.049 7.97333 271.369 8.144C271.689 8.304 271.945 8.528 272.137 8.816C272.34 9.09333 272.441 9.472 272.441 9.952C272.441 10.624 272.196 11.1627 271.705 11.568C271.225 11.9627 270.569 12.16 269.737 12.16ZM274.214 12V4.48H275.35V12H274.214ZM274.774 2.848C274.561 2.848 274.379 2.77333 274.23 2.624C274.081 2.464 274.006 2.27733 274.006 2.064C274.006 1.84 274.081 1.65333 274.23 1.504C274.379 1.35467 274.561 1.28 274.774 1.28C275.009 1.28 275.195 1.35467 275.334 1.504C275.483 1.65333 275.558 1.84 275.558 2.064C275.558 2.27733 275.483 2.464 275.334 2.624C275.195 2.77333 275.009 2.848 274.774 2.848ZM278.788 12V1.312H279.908V12H278.788ZM276.884 5.488V4.48H281.796V5.488H276.884ZM286.482 12.16C285.756 12.16 285.095 11.984 284.498 11.632C283.911 11.28 283.442 10.8053 283.09 10.208C282.748 9.61067 282.578 8.944 282.578 8.208C282.578 7.48267 282.748 6.82667 283.09 6.24C283.442 5.65333 283.911 5.18933 284.498 4.848C285.095 4.496 285.756 4.32 286.482 4.32C287.218 4.32 287.879 4.49067 288.466 4.832C289.052 5.17333 289.516 5.64267 289.858 6.24C290.21 6.82667 290.385 7.48267 290.385 8.208C290.385 8.95467 290.21 9.62667 289.858 10.224C289.516 10.8107 289.052 11.28 288.466 11.632C287.879 11.984 287.218 12.16 286.482 12.16ZM286.482 11.072C287.015 11.072 287.484 10.9493 287.89 10.704C288.306 10.4587 288.631 10.1173 288.866 9.68C289.111 9.24267 289.234 8.752 289.234 8.208C289.234 7.664 289.111 7.184 288.866 6.768C288.631 6.34133 288.306 6.00533 287.89 5.76C287.484 5.51467 287.015 5.392 286.482 5.392C285.959 5.392 285.49 5.51467 285.074 5.76C284.658 6.00533 284.332 6.34133 284.098 6.768C283.863 7.184 283.746 7.664 283.746 8.208C283.746 8.76267 283.863 9.25867 284.098 9.696C284.332 10.1227 284.658 10.4587 285.074 10.704C285.49 10.9493 285.959 11.072 286.482 11.072ZM292.167 12V4.48H293.287V12H292.167ZM293.287 7.616L292.823 7.408C292.823 6.45867 293.053 5.70667 293.511 5.152C293.981 4.59733 294.621 4.32 295.431 4.32C295.805 4.32 296.146 4.38933 296.455 4.528C296.765 4.656 297.053 4.864 297.319 5.152L296.583 5.936C296.402 5.73333 296.199 5.58933 295.975 5.504C295.762 5.41867 295.517 5.376 295.239 5.376C294.663 5.376 294.194 5.568 293.831 5.952C293.469 6.32533 293.287 6.88 293.287 7.616ZM300.643 12.16C300.238 12.16 299.848 12.1067 299.475 12C299.102 11.8827 298.76 11.7227 298.451 11.52C298.152 11.3173 297.891 11.0773 297.667 10.8L298.387 10.064C298.686 10.4267 299.022 10.6987 299.395 10.88C299.779 11.0507 300.206 11.136 300.675 11.136C301.176 11.136 301.566 11.04 301.843 10.848C302.131 10.656 302.275 10.3893 302.275 10.048C302.275 9.728 302.174 9.47733 301.971 9.296C301.768 9.11467 301.507 8.97067 301.187 8.864C300.878 8.75733 300.547 8.656 300.195 8.56C299.843 8.45333 299.507 8.32533 299.187 8.176C298.867 8.016 298.606 7.79733 298.403 7.52C298.211 7.24267 298.115 6.88 298.115 6.432C298.115 6.00533 298.216 5.63733 298.419 5.328C298.632 5.008 298.931 4.76267 299.315 4.592C299.71 4.41067 300.174 4.32 300.707 4.32C301.272 4.32 301.784 4.42133 302.243 4.624C302.702 4.82667 303.07 5.12533 303.347 5.52L302.627 6.24C302.403 5.952 302.12 5.73333 301.779 5.584C301.448 5.424 301.075 5.344 300.659 5.344C300.179 5.344 299.811 5.44 299.555 5.632C299.31 5.81333 299.187 6.05333 299.187 6.352C299.187 6.64 299.288 6.86933 299.491 7.04C299.694 7.2 299.95 7.33333 300.259 7.44C300.579 7.536 300.915 7.63733 301.267 7.744C301.619 7.84 301.955 7.97333 302.275 8.144C302.595 8.304 302.851 8.528 303.043 8.816C303.246 9.09333 303.347 9.472 303.347 9.952C303.347 10.624 303.102 11.1627 302.611 11.568C302.131 11.9627 301.475 12.16 300.643 12.16ZM4.4 38.16C3.68533 38.16 3.04533 37.9893 2.48 37.648C1.91467 37.296 1.46667 36.8267 1.136 36.24C0.816 35.6533 0.656 34.992 0.656 34.256C0.656 33.5093 0.816 32.8427 1.136 32.256C1.46667 31.6587 1.91467 31.1893 2.48 30.848C3.04533 30.496 3.68 30.32 4.384 30.32C4.96 30.32 5.472 30.4373 5.92 30.672C6.37867 30.896 6.74667 31.216 7.024 31.632C7.312 32.0373 7.488 32.512 7.552 33.056V35.408C7.488 35.952 7.312 36.432 7.024 36.848C6.74667 37.264 6.37867 37.5893 5.92 37.824C5.472 38.048 4.96533 38.16 4.4 38.16ZM4.576 37.088C5.35467 37.088 5.97867 36.8267 6.448 36.304C6.928 35.7813 7.168 35.0933 7.168 34.24C7.168 33.6747 7.056 33.1787 6.832 32.752C6.61867 32.3147 6.31467 31.9787 5.92 31.744C5.536 31.4987 5.08267 31.376 4.56 31.376C4.02667 31.376 3.552 31.4987 3.136 31.744C2.73067 31.9893 2.40533 32.3307 2.16 32.768C1.92533 33.1947 1.808 33.6853 1.808 34.24C1.808 34.7947 1.92533 35.2853 2.16 35.712C2.40533 36.1387 2.736 36.4747 3.152 36.72C3.568 36.9653 4.04267 37.088 4.576 37.088ZM7.104 38V35.984L7.328 34.128L7.104 32.32V30.48H8.224V38H7.104ZM15.9674 38V33.584C15.9674 32.9227 15.77 32.3893 15.3754 31.984C14.9914 31.568 14.4794 31.36 13.8394 31.36C13.402 31.36 13.018 31.456 12.6874 31.648C12.3567 31.84 12.0954 32.1013 11.9034 32.432C11.7114 32.7627 11.6154 33.1413 11.6154 33.568L11.1034 33.28C11.1034 32.7147 11.2367 32.208 11.5034 31.76C11.77 31.312 12.1274 30.96 12.5754 30.704C13.034 30.448 13.5567 30.32 14.1434 30.32C14.7194 30.32 15.2314 30.4587 15.6794 30.736C16.1274 31.0133 16.474 31.3867 16.7194 31.856C16.9754 32.3253 17.1034 32.8373 17.1034 33.392V38H15.9674ZM10.4954 38V30.48H11.6154V38H10.4954ZM22.3985 38.16C21.7052 38.16 21.0812 37.9893 20.5265 37.648C19.9718 37.3067 19.5292 36.8427 19.1985 36.256C18.8785 35.6587 18.7185 34.992 18.7185 34.256C18.7185 33.5093 18.8785 32.8427 19.1985 32.256C19.5292 31.6587 19.9718 31.1893 20.5265 30.848C21.0812 30.496 21.7052 30.32 22.3985 30.32C22.9638 30.32 23.4758 30.432 23.9345 30.656C24.3932 30.88 24.7718 31.2 25.0705 31.616C25.3798 32.0213 25.5612 32.5013 25.6145 33.056V35.408C25.5505 35.952 25.3692 36.432 25.0705 36.848C24.7825 37.2533 24.4092 37.5733 23.9505 37.808C23.4918 38.0427 22.9745 38.16 22.3985 38.16ZM22.5905 37.088C23.1132 37.088 23.5718 36.9707 23.9665 36.736C24.3612 36.4907 24.6705 36.1547 24.8945 35.728C25.1185 35.2907 25.2305 34.7947 25.2305 34.24C25.2305 33.6747 25.1132 33.1787 24.8785 32.752C24.6545 32.3253 24.3452 31.9893 23.9505 31.744C23.5558 31.4987 23.0972 31.376 22.5745 31.376C22.0518 31.376 21.5878 31.4987 21.1825 31.744C20.7772 31.9893 20.4572 32.3307 20.2225 32.768C19.9985 33.1947 19.8865 33.6853 19.8865 34.24C19.8865 34.7947 19.9985 35.2907 20.2225 35.728C20.4572 36.1547 20.7772 36.4907 21.1825 36.736C21.5985 36.9707 22.0678 37.088 22.5905 37.088ZM26.2865 38H25.1665V35.984L25.3905 34.128L25.1665 32.32V26.672H26.2865V38ZM35.4034 38.16C34.678 38.16 34.0167 37.984 33.4194 37.632C32.8327 37.28 32.3634 36.8053 32.0114 36.208C31.67 35.6107 31.4994 34.944 31.4994 34.208C31.4994 33.4827 31.67 32.8267 32.0114 32.24C32.3634 31.6533 32.8327 31.1893 33.4194 30.848C34.0167 30.496 34.678 30.32 35.4034 30.32C36.1394 30.32 36.8007 30.4907 37.3874 30.832C37.974 31.1733 38.438 31.6427 38.7794 32.24C39.1314 32.8267 39.3074 33.4827 39.3074 34.208C39.3074 34.9547 39.1314 35.6267 38.7794 36.224C38.438 36.8107 37.974 37.28 37.3874 37.632C36.8007 37.984 36.1394 38.16 35.4034 38.16ZM35.4034 37.072C35.9367 37.072 36.406 36.9493 36.8114 36.704C37.2274 36.4587 37.5527 36.1173 37.7874 35.68C38.0327 35.2427 38.1554 34.752 38.1554 34.208C38.1554 33.664 38.0327 33.184 37.7874 32.768C37.5527 32.3413 37.2274 32.0053 36.8114 31.76C36.406 31.5147 35.9367 31.392 35.4034 31.392C34.8807 31.392 34.4114 31.5147 33.9954 31.76C33.5794 32.0053 33.254 32.3413 33.0194 32.768C32.7847 33.184 32.6674 33.664 32.6674 34.208C32.6674 34.7627 32.7847 35.2587 33.0194 35.696C33.254 36.1227 33.5794 36.4587 33.9954 36.704C34.4114 36.9493 34.8807 37.072 35.4034 37.072ZM44.9771 38.16C44.4011 38.16 43.8838 38.0427 43.4251 37.808C42.9665 37.5733 42.5878 37.2533 42.2891 36.848C42.0011 36.432 41.8251 35.952 41.7611 35.408V33.056C41.8251 32.5013 42.0065 32.0213 42.3051 31.616C42.6038 31.2 42.9825 30.88 43.4411 30.656C43.9105 30.432 44.4225 30.32 44.9771 30.32C45.6705 30.32 46.2945 30.496 46.8491 30.848C47.4038 31.1893 47.8411 31.6587 48.1611 32.256C48.4918 32.8427 48.6571 33.5093 48.6571 34.256C48.6571 34.992 48.4971 35.6533 48.1771 36.24C47.8571 36.8267 47.4145 37.296 46.8491 37.648C46.2945 37.9893 45.6705 38.16 44.9771 38.16ZM44.7851 37.088C45.3185 37.088 45.7878 36.9707 46.1931 36.736C46.5985 36.4907 46.9131 36.1547 47.1371 35.728C47.3718 35.2907 47.4891 34.7947 47.4891 34.24C47.4891 33.6747 47.3718 33.1787 47.1371 32.752C46.9131 32.3253 46.5985 31.9893 46.1931 31.744C45.7878 31.4987 45.3238 31.376 44.8011 31.376C44.2785 31.376 43.8145 31.4987 43.4091 31.744C43.0145 31.9893 42.7051 32.3253 42.4811 32.752C42.2571 33.1787 42.1451 33.6747 42.1451 34.24C42.1451 34.7947 42.2571 35.2907 42.4811 35.728C42.7051 36.1547 43.0145 36.4907 43.4091 36.736C43.8038 36.9707 44.2625 37.088 44.7851 37.088ZM41.0891 41.168V30.48H42.2091V32.4L41.9851 34.224L42.2091 36.064V41.168H41.0891ZM53.9205 38.16C53.1632 38.16 52.4858 37.9893 51.8885 37.648C51.2912 37.3067 50.8165 36.8373 50.4645 36.24C50.1232 35.6427 49.9525 34.9707 49.9525 34.224C49.9525 33.488 50.1232 32.8267 50.4645 32.24C50.8058 31.6427 51.2698 31.1733 51.8565 30.832C52.4432 30.4907 53.0992 30.32 53.8245 30.32C54.5072 30.32 55.1098 30.4747 55.6325 30.784C56.1658 31.0933 56.5818 31.5253 56.8805 32.08C57.1898 32.624 57.3445 33.2533 57.3445 33.968C57.3445 34.0533 57.3392 34.1547 57.3285 34.272C57.3178 34.3787 57.2965 34.5067 57.2645 34.656H50.7525V33.696H56.6565L56.2565 34.048C56.2672 33.4933 56.1712 33.0187 55.9685 32.624C55.7765 32.2187 55.4938 31.9093 55.1205 31.696C54.7578 31.472 54.3152 31.36 53.7925 31.36C53.2485 31.36 52.7738 31.4773 52.3685 31.712C51.9632 31.9467 51.6432 32.2773 51.4085 32.704C51.1845 33.12 51.0725 33.616 51.0725 34.192C51.0725 34.768 51.1898 35.2747 51.4245 35.712C51.6698 36.1493 52.0058 36.4907 52.4325 36.736C52.8698 36.9813 53.3712 37.104 53.9365 37.104C54.3952 37.104 54.8165 37.024 55.2005 36.864C55.5845 36.6933 55.9098 36.4427 56.1765 36.112L56.8965 36.848C56.5445 37.264 56.1072 37.5893 55.5845 37.824C55.0725 38.048 54.5178 38.16 53.9205 38.16ZM64.5299 38V33.584C64.5299 32.9227 64.3325 32.3893 63.9379 31.984C63.5539 31.568 63.0419 31.36 62.4019 31.36C61.9645 31.36 61.5805 31.456 61.2499 31.648C60.9192 31.84 60.6579 32.1013 60.4659 32.432C60.2739 32.7627 60.1779 33.1413 60.1779 33.568L59.6659 33.28C59.6659 32.7147 59.7992 32.208 60.0659 31.76C60.3325 31.312 60.6899 30.96 61.1379 30.704C61.5965 30.448 62.1192 30.32 62.7059 30.32C63.2819 30.32 63.7939 30.4587 64.2419 30.736C64.6899 31.0133 65.0365 31.3867 65.2819 31.856C65.5379 32.3253 65.6659 32.8373 65.6659 33.392V38H64.5299ZM59.0579 38V30.48H60.1779V38H59.0579ZM73.5025 38.16C73.0972 38.16 72.7078 38.1067 72.3345 38C71.9612 37.8827 71.6198 37.7227 71.3105 37.52C71.0118 37.3173 70.7505 37.0773 70.5265 36.8L71.2465 36.064C71.5452 36.4267 71.8812 36.6987 72.2545 36.88C72.6385 37.0507 73.0652 37.136 73.5345 37.136C74.0358 37.136 74.4252 37.04 74.7025 36.848C74.9905 36.656 75.1345 36.3893 75.1345 36.048C75.1345 35.728 75.0332 35.4773 74.8305 35.296C74.6278 35.1147 74.3665 34.9707 74.0465 34.864C73.7372 34.7573 73.4065 34.656 73.0545 34.56C72.7025 34.4533 72.3665 34.3253 72.0465 34.176C71.7265 34.016 71.4652 33.7973 71.2625 33.52C71.0705 33.2427 70.9745 32.88 70.9745 32.432C70.9745 32.0053 71.0758 31.6373 71.2785 31.328C71.4918 31.008 71.7905 30.7627 72.1745 30.592C72.5692 30.4107 73.0332 30.32 73.5665 30.32C74.1318 30.32 74.6438 30.4213 75.1025 30.624C75.5612 30.8267 75.9292 31.1253 76.2065 31.52L75.4865 32.24C75.2625 31.952 74.9798 31.7333 74.6385 31.584C74.3078 31.424 73.9345 31.344 73.5185 31.344C73.0385 31.344 72.6705 31.44 72.4145 31.632C72.1692 31.8133 72.0465 32.0533 72.0465 32.352C72.0465 32.64 72.1478 32.8693 72.3505 33.04C72.5532 33.2 72.8092 33.3333 73.1185 33.44C73.4385 33.536 73.7745 33.6373 74.1265 33.744C74.4785 33.84 74.8145 33.9733 75.1345 34.144C75.4545 34.304 75.7105 34.528 75.9025 34.816C76.1052 35.0933 76.2065 35.472 76.2065 35.952C76.2065 36.624 75.9612 37.1627 75.4705 37.568C74.9905 37.9627 74.3345 38.16 73.5025 38.16ZM81.4518 38.16C80.6944 38.16 80.0171 37.9893 79.4198 37.648C78.8224 37.3067 78.3478 36.8373 77.9958 36.24C77.6544 35.6427 77.4838 34.9707 77.4838 34.224C77.4838 33.488 77.6544 32.8267 77.9958 32.24C78.3371 31.6427 78.8011 31.1733 79.3878 30.832C79.9744 30.4907 80.6304 30.32 81.3558 30.32C82.0384 30.32 82.6411 30.4747 83.1638 30.784C83.6971 31.0933 84.1131 31.5253 84.4118 32.08C84.7211 32.624 84.8758 33.2533 84.8758 33.968C84.8758 34.0533 84.8704 34.1547 84.8598 34.272C84.8491 34.3787 84.8278 34.5067 84.7958 34.656H78.2838V33.696H84.1878L83.7878 34.048C83.7984 33.4933 83.7024 33.0187 83.4998 32.624C83.3078 32.2187 83.0251 31.9093 82.6518 31.696C82.2891 31.472 81.8464 31.36 81.3238 31.36C80.7798 31.36 80.3051 31.4773 79.8998 31.712C79.4944 31.9467 79.1744 32.2773 78.9398 32.704C78.7158 33.12 78.6038 33.616 78.6038 34.192C78.6038 34.768 78.7211 35.2747 78.9557 35.712C79.2011 36.1493 79.5371 36.4907 79.9638 36.736C80.4011 36.9813 80.9024 37.104 81.4678 37.104C81.9264 37.104 82.3478 37.024 82.7318 36.864C83.1158 36.6933 83.4411 36.4427 83.7078 36.112L84.4278 36.848C84.0758 37.264 83.6384 37.5893 83.1158 37.824C82.6038 38.048 82.0491 38.16 81.4518 38.16ZM89.0881 38L85.6161 30.48H86.8641L89.7921 37.056H89.0881L92.0321 30.48H93.2481L89.7441 38H89.0881ZM97.8111 38.16C97.0538 38.16 96.3765 37.9893 95.7791 37.648C95.1818 37.3067 94.7071 36.8373 94.3551 36.24C94.0138 35.6427 93.8431 34.9707 93.8431 34.224C93.8431 33.488 94.0138 32.8267 94.3551 32.24C94.6965 31.6427 95.1605 31.1733 95.7471 30.832C96.3338 30.4907 96.9898 30.32 97.7151 30.32C98.3978 30.32 99.0005 30.4747 99.5231 30.784C100.056 31.0933 100.472 31.5253 100.771 32.08C101.08 32.624 101.235 33.2533 101.235 33.968C101.235 34.0533 101.23 34.1547 101.219 34.272C101.208 34.3787 101.187 34.5067 101.155 34.656H94.6431V33.696H100.547L100.147 34.048C100.158 33.4933 100.062 33.0187 99.8591 32.624C99.6671 32.2187 99.3845 31.9093 99.0111 31.696C98.6485 31.472 98.2058 31.36 97.6831 31.36C97.1391 31.36 96.6645 31.4773 96.2591 31.712C95.8538 31.9467 95.5338 32.2773 95.2991 32.704C95.0751 33.12 94.9631 33.616 94.9631 34.192C94.9631 34.768 95.0805 35.2747 95.3151 35.712C95.5605 36.1493 95.8965 36.4907 96.3231 36.736C96.7605 36.9813 97.2618 37.104 97.8271 37.104C98.2858 37.104 98.7071 37.024 99.0911 36.864C99.4751 36.6933 99.8005 36.4427 100.067 36.112L100.787 36.848C100.435 37.264 99.9978 37.5893 99.4751 37.824C98.9631 38.048 98.4085 38.16 97.8111 38.16ZM108.421 38V33.584C108.421 32.9227 108.223 32.3893 107.829 31.984C107.445 31.568 106.933 31.36 106.293 31.36C105.855 31.36 105.471 31.456 105.141 31.648C104.81 31.84 104.549 32.1013 104.357 32.432C104.165 32.7627 104.069 33.1413 104.069 33.568L103.557 33.28C103.557 32.7147 103.69 32.208 103.957 31.76C104.223 31.312 104.581 30.96 105.029 30.704C105.487 30.448 106.01 30.32 106.597 30.32C107.173 30.32 107.685 30.4587 108.133 30.736C108.581 31.0133 108.927 31.3867 109.173 31.856C109.429 32.3253 109.557 32.8373 109.557 33.392V38H108.421ZM102.949 38V30.48H104.069V38H102.949ZM118.289 38.16C117.596 38.16 116.972 37.9893 116.417 37.648C115.862 37.3067 115.42 36.8427 115.089 36.256C114.769 35.6587 114.609 34.992 114.609 34.256C114.609 33.5093 114.769 32.8427 115.089 32.256C115.42 31.6587 115.862 31.1893 116.417 30.848C116.972 30.496 117.596 30.32 118.289 30.32C118.854 30.32 119.366 30.432 119.825 30.656C120.284 30.88 120.662 31.2 120.961 31.616C121.27 32.0213 121.452 32.5013 121.505 33.056V35.408C121.441 35.952 121.26 36.432 120.961 36.848C120.673 37.2533 120.3 37.5733 119.841 37.808C119.382 38.0427 118.865 38.16 118.289 38.16ZM118.481 37.088C119.004 37.088 119.462 36.9707 119.857 36.736C120.252 36.4907 120.561 36.1547 120.785 35.728C121.009 35.2907 121.121 34.7947 121.121 34.24C121.121 33.6747 121.004 33.1787 120.769 32.752C120.545 32.3253 120.236 31.9893 119.841 31.744C119.446 31.4987 118.988 31.376 118.465 31.376C117.942 31.376 117.478 31.4987 117.073 31.744C116.668 31.9893 116.348 32.3307 116.113 32.768C115.889 33.1947 115.777 33.6853 115.777 34.24C115.777 34.7947 115.889 35.2907 116.113 35.728C116.348 36.1547 116.668 36.4907 117.073 36.736C117.489 36.9707 117.958 37.088 118.481 37.088ZM122.177 38H121.057V35.984L121.281 34.128L121.057 32.32V26.672H122.177V38ZM127.713 38.16C126.998 38.16 126.358 37.9893 125.793 37.648C125.227 37.296 124.779 36.8267 124.449 36.24C124.129 35.6533 123.969 34.992 123.969 34.256C123.969 33.5093 124.129 32.8427 124.449 32.256C124.779 31.6587 125.227 31.1893 125.793 30.848C126.358 30.496 126.993 30.32 127.697 30.32C128.273 30.32 128.785 30.4373 129.233 30.672C129.691 30.896 130.059 31.216 130.337 31.632C130.625 32.0373 130.801 32.512 130.865 33.056V35.408C130.801 35.952 130.625 36.432 130.337 36.848C130.059 37.264 129.691 37.5893 129.233 37.824C128.785 38.048 128.278 38.16 127.713 38.16ZM127.889 37.088C128.667 37.088 129.291 36.8267 129.761 36.304C130.241 35.7813 130.481 35.0933 130.481 34.24C130.481 33.6747 130.369 33.1787 130.145 32.752C129.931 32.3147 129.627 31.9787 129.233 31.744C128.849 31.4987 128.395 31.376 127.873 31.376C127.339 31.376 126.865 31.4987 126.449 31.744C126.043 31.9893 125.718 32.3307 125.473 32.768C125.238 33.1947 125.121 33.6853 125.121 34.24C125.121 34.7947 125.238 35.2853 125.473 35.712C125.718 36.1387 126.049 36.4747 126.465 36.72C126.881 36.9653 127.355 37.088 127.889 37.088ZM130.417 38V35.984L130.641 34.128L130.417 32.32V30.48H131.536V38H130.417ZM136.32 38.032L133.024 30.48H134.256L136.912 36.784H136.448L139.248 30.48H140.496L136.96 38.032H136.32ZM134.272 41.168L136.336 36.896L136.96 38.032L135.504 41.168H134.272ZM143.987 38.16C143.582 38.16 143.192 38.1067 142.819 38C142.446 37.8827 142.104 37.7227 141.795 37.52C141.496 37.3173 141.235 37.0773 141.011 36.8L141.731 36.064C142.03 36.4267 142.366 36.6987 142.739 36.88C143.123 37.0507 143.55 37.136 144.019 37.136C144.52 37.136 144.91 37.04 145.187 36.848C145.475 36.656 145.619 36.3893 145.619 36.048C145.619 35.728 145.518 35.4773 145.315 35.296C145.112 35.1147 144.851 34.9707 144.531 34.864C144.222 34.7573 143.891 34.656 143.539 34.56C143.187 34.4533 142.851 34.3253 142.531 34.176C142.211 34.016 141.95 33.7973 141.747 33.52C141.555 33.2427 141.459 32.88 141.459 32.432C141.459 32.0053 141.56 31.6373 141.763 31.328C141.976 31.008 142.275 30.7627 142.659 30.592C143.054 30.4107 143.518 30.32 144.051 30.32C144.616 30.32 145.128 30.4213 145.587 30.624C146.046 30.8267 146.414 31.1253 146.691 31.52L145.971 32.24C145.747 31.952 145.464 31.7333 145.123 31.584C144.792 31.424 144.419 31.344 144.003 31.344C143.523 31.344 143.155 31.44 142.899 31.632C142.654 31.8133 142.531 32.0533 142.531 32.352C142.531 32.64 142.632 32.8693 142.835 33.04C143.038 33.2 143.294 33.3333 143.603 33.44C143.923 33.536 144.259 33.6373 144.611 33.744C144.963 33.84 145.299 33.9733 145.619 34.144C145.939 34.304 146.195 34.528 146.387 34.816C146.59 35.0933 146.691 35.472 146.691 35.952C146.691 36.624 146.446 37.1627 145.955 37.568C145.475 37.9627 144.819 38.16 143.987 38.16ZM155.166 38.16C154.451 38.16 153.811 37.9893 153.246 37.648C152.68 37.296 152.232 36.8267 151.902 36.24C151.582 35.6533 151.422 34.992 151.422 34.256C151.422 33.5093 151.582 32.8427 151.902 32.256C152.232 31.6587 152.68 31.1893 153.246 30.848C153.811 30.496 154.446 30.32 155.15 30.32C155.726 30.32 156.238 30.4373 156.686 30.672C157.144 30.896 157.512 31.216 157.79 31.632C158.078 32.0373 158.254 32.512 158.318 33.056V35.408C158.254 35.952 158.078 36.432 157.79 36.848C157.512 37.264 157.144 37.5893 156.686 37.824C156.238 38.048 155.731 38.16 155.166 38.16ZM155.342 37.088C156.12 37.088 156.744 36.8267 157.214 36.304C157.694 35.7813 157.934 35.0933 157.934 34.24C157.934 33.6747 157.822 33.1787 157.598 32.752C157.384 32.3147 157.08 31.9787 156.686 31.744C156.302 31.4987 155.848 31.376 155.326 31.376C154.792 31.376 154.318 31.4987 153.902 31.744C153.496 31.9893 153.171 32.3307 152.926 32.768C152.691 33.1947 152.574 33.6853 152.574 34.24C152.574 34.7947 152.691 35.2853 152.926 35.712C153.171 36.1387 153.502 36.4747 153.918 36.72C154.334 36.9653 154.808 37.088 155.342 37.088ZM157.87 38V35.984L158.094 34.128L157.87 32.32V30.48H158.99V38H157.87ZM166.795 38L163.899 30.48H165.067L167.355 36.72L166.939 36.736L169.211 30.48H169.867L172.139 36.736L171.723 36.72L173.995 30.48H175.179L172.267 38H171.611L169.291 31.84H169.771L167.467 38H166.795ZM179.858 38.16C179.101 38.16 178.423 37.9893 177.826 37.648C177.229 37.3067 176.754 36.8373 176.402 36.24C176.061 35.6427 175.89 34.9707 175.89 34.224C175.89 33.488 176.061 32.8267 176.402 32.24C176.743 31.6427 177.207 31.1733 177.794 30.832C178.381 30.4907 179.037 30.32 179.762 30.32C180.445 30.32 181.047 30.4747 181.57 30.784C182.103 31.0933 182.519 31.5253 182.818 32.08C183.127 32.624 183.282 33.2533 183.282 33.968C183.282 34.0533 183.277 34.1547 183.266 34.272C183.255 34.3787 183.234 34.5067 183.202 34.656H176.69V33.696H182.594L182.194 34.048C182.205 33.4933 182.109 33.0187 181.906 32.624C181.714 32.2187 181.431 31.9093 181.058 31.696C180.695 31.472 180.253 31.36 179.73 31.36C179.186 31.36 178.711 31.4773 178.306 31.712C177.901 31.9467 177.581 32.2773 177.346 32.704C177.122 33.12 177.01 33.616 177.01 34.192C177.01 34.768 177.127 35.2747 177.362 35.712C177.607 36.1493 177.943 36.4907 178.37 36.736C178.807 36.9813 179.309 37.104 179.874 37.104C180.333 37.104 180.754 37.024 181.138 36.864C181.522 36.6933 181.847 36.4427 182.114 36.112L182.834 36.848C182.482 37.264 182.045 37.5893 181.522 37.824C181.01 38.048 180.455 38.16 179.858 38.16ZM188.467 38.16C187.71 38.16 187.033 37.9893 186.435 37.648C185.838 37.3067 185.363 36.8373 185.011 36.24C184.67 35.6427 184.499 34.9707 184.499 34.224C184.499 33.488 184.67 32.8267 185.011 32.24C185.353 31.6427 185.817 31.1733 186.403 30.832C186.99 30.4907 187.646 30.32 188.371 30.32C189.054 30.32 189.657 30.4747 190.179 30.784C190.713 31.0933 191.129 31.5253 191.427 32.08C191.737 32.624 191.891 33.2533 191.891 33.968C191.891 34.0533 191.886 34.1547 191.875 34.272C191.865 34.3787 191.843 34.5067 191.811 34.656H185.299V33.696H191.203L190.803 34.048C190.814 33.4933 190.718 33.0187 190.515 32.624C190.323 32.2187 190.041 31.9093 189.667 31.696C189.305 31.472 188.862 31.36 188.339 31.36C187.795 31.36 187.321 31.4773 186.915 31.712C186.51 31.9467 186.19 32.2773 185.955 32.704C185.731 33.12 185.619 33.616 185.619 34.192C185.619 34.768 185.737 35.2747 185.971 35.712C186.217 36.1493 186.553 36.4907 186.979 36.736C187.417 36.9813 187.918 37.104 188.483 37.104C188.942 37.104 189.363 37.024 189.747 36.864C190.131 36.6933 190.457 36.4427 190.723 36.112L191.443 36.848C191.091 37.264 190.654 37.5893 190.131 37.824C189.619 38.048 189.065 38.16 188.467 38.16ZM198.453 38L194.613 34.144L198.389 30.48H199.781L195.669 34.432L195.701 33.792L199.941 38H198.453ZM193.605 38V26.672H194.725V38H193.605ZM205.896 38V29.2C205.896 28.6773 206.008 28.2133 206.232 27.808C206.467 27.4027 206.787 27.088 207.192 26.864C207.608 26.6293 208.078 26.512 208.6 26.512C209.006 26.512 209.363 26.5867 209.672 26.736C209.982 26.8747 210.264 27.072 210.52 27.328L209.784 28.064C209.614 27.8933 209.432 27.7707 209.24 27.696C209.059 27.6107 208.846 27.568 208.6 27.568C208.099 27.568 207.71 27.7173 207.432 28.016C207.166 28.304 207.032 28.7093 207.032 29.232V38H205.896ZM204.008 31.488V30.48H209.544V31.488H204.008ZM210.824 38V30.48H211.944V38H210.824ZM211.944 33.616L211.48 33.408C211.48 32.4587 211.709 31.7067 212.168 31.152C212.637 30.5973 213.277 30.32 214.088 30.32C214.461 30.32 214.802 30.3893 215.112 30.528C215.421 30.656 215.709 30.864 215.976 31.152L215.24 31.936C215.058 31.7333 214.856 31.5893 214.632 31.504C214.418 31.4187 214.173 31.376 213.896 31.376C213.32 31.376 212.85 31.568 212.488 31.952C212.125 32.3253 211.944 32.88 211.944 33.616ZM220.31 38.16C219.584 38.16 218.923 37.984 218.326 37.632C217.739 37.28 217.27 36.8053 216.918 36.208C216.576 35.6107 216.406 34.944 216.406 34.208C216.406 33.4827 216.576 32.8267 216.918 32.24C217.27 31.6533 217.739 31.1893 218.326 30.848C218.923 30.496 219.584 30.32 220.31 30.32C221.046 30.32 221.707 30.4907 222.294 30.832C222.88 31.1733 223.344 31.6427 223.686 32.24C224.038 32.8267 224.214 33.4827 224.214 34.208C224.214 34.9547 224.038 35.6267 223.686 36.224C223.344 36.8107 222.88 37.28 222.294 37.632C221.707 37.984 221.046 38.16 220.31 38.16ZM220.31 37.072C220.843 37.072 221.312 36.9493 221.718 36.704C222.134 36.4587 222.459 36.1173 222.694 35.68C222.939 35.2427 223.062 34.752 223.062 34.208C223.062 33.664 222.939 33.184 222.694 32.768C222.459 32.3413 222.134 32.0053 221.718 31.76C221.312 31.5147 220.843 31.392 220.31 31.392C219.787 31.392 219.318 31.5147 218.902 31.76C218.486 32.0053 218.16 32.3413 217.926 32.768C217.691 33.184 217.574 33.664 217.574 34.208C217.574 34.7627 217.691 35.2587 217.926 35.696C218.16 36.1227 218.486 36.4587 218.902 36.704C219.318 36.9493 219.787 37.072 220.31 37.072ZM225.995 38V30.48H227.115V38H225.995ZM231.163 38V33.392C231.163 32.7733 230.977 32.2827 230.603 31.92C230.23 31.5467 229.761 31.36 229.195 31.36C228.811 31.36 228.459 31.4453 228.139 31.616C227.83 31.776 227.579 32.0053 227.387 32.304C227.206 32.6027 227.115 32.96 227.115 33.376L226.603 33.168C226.603 32.592 226.731 32.0907 226.987 31.664C227.243 31.2373 227.585 30.9067 228.011 30.672C228.449 30.4373 228.939 30.32 229.483 30.32C230.017 30.32 230.491 30.4373 230.907 30.672C231.334 30.9067 231.67 31.2373 231.915 31.664C232.171 32.0907 232.299 32.5973 232.299 33.184V38H231.163ZM236.347 38V33.392C236.347 32.7733 236.161 32.2827 235.787 31.92C235.414 31.5467 234.939 31.36 234.363 31.36C233.99 31.36 233.643 31.4453 233.323 31.616C233.014 31.776 232.763 32.0053 232.571 32.304C232.39 32.6027 232.299 32.96 232.299 33.376L231.627 33.168C231.659 32.592 231.809 32.0907 232.075 31.664C232.353 31.2373 232.71 30.9067 233.147 30.672C233.595 30.4373 234.086 30.32 234.619 30.32C235.153 30.32 235.633 30.4373 236.059 30.672C236.497 30.9067 236.838 31.2373 237.083 31.664C237.339 32.0907 237.467 32.5973 237.467 33.184V38H236.347ZM246.291 38.16C245.576 38.16 244.942 38.0213 244.387 37.744C243.843 37.4667 243.416 37.088 243.107 36.608C242.798 36.1173 242.643 35.5627 242.643 34.944C242.643 34.4533 242.739 34.0053 242.931 33.6C243.134 33.184 243.416 32.832 243.779 32.544C244.142 32.2453 244.563 32.0427 245.043 31.936L245.171 32.272C244.744 32.1547 244.382 31.968 244.083 31.712C243.784 31.456 243.555 31.152 243.395 30.8C243.235 30.4373 243.155 30.0587 243.155 29.664C243.155 29.0987 243.288 28.608 243.555 28.192C243.832 27.7653 244.206 27.4293 244.675 27.184C245.155 26.9387 245.694 26.816 246.291 26.816C246.899 26.816 247.438 26.9387 247.907 27.184C248.387 27.4293 248.76 27.7653 249.027 28.192C249.294 28.608 249.427 29.0987 249.427 29.664C249.427 30.0587 249.347 30.4373 249.187 30.8C249.038 31.152 248.814 31.456 248.515 31.712C248.216 31.968 247.848 32.1547 247.411 32.272L247.539 31.936C248.03 32.0427 248.451 32.2453 248.803 32.544C249.166 32.832 249.443 33.184 249.635 33.6C249.838 34.0053 249.939 34.4533 249.939 34.944C249.939 35.5627 249.784 36.1173 249.475 36.608C249.176 37.088 248.75 37.4667 248.195 37.744C247.651 38.0213 247.016 38.16 246.291 38.16ZM246.291 37.104C246.782 37.104 247.214 37.008 247.587 36.816C247.971 36.624 248.27 36.3573 248.483 36.016C248.696 35.664 248.803 35.2693 248.803 34.832C248.803 34.384 248.696 33.9947 248.483 33.664C248.27 33.3227 247.971 33.056 247.587 32.864C247.214 32.6613 246.782 32.56 246.291 32.56C245.811 32.56 245.379 32.6613 244.995 32.864C244.622 33.056 244.323 33.3227 244.099 33.664C243.886 33.9947 243.779 34.384 243.779 34.832C243.779 35.2693 243.886 35.664 244.099 36.016C244.323 36.3573 244.622 36.624 244.995 36.816C245.368 37.008 245.8 37.104 246.291 37.104ZM246.291 31.648C246.888 31.648 247.374 31.472 247.747 31.12C248.131 30.7573 248.323 30.2933 248.323 29.728C248.323 29.1627 248.131 28.704 247.747 28.352C247.374 28 246.888 27.824 246.291 27.824C245.704 27.824 245.219 28 244.835 28.352C244.451 28.704 244.259 29.1627 244.259 29.728C244.259 30.2933 244.451 30.7573 244.835 31.12C245.219 31.472 245.704 31.648 246.291 31.648ZM255.103 38.16C254.388 38.16 253.748 37.9893 253.183 37.648C252.618 37.296 252.17 36.8267 251.839 36.24C251.519 35.6533 251.359 34.992 251.359 34.256C251.359 33.5093 251.519 32.8427 251.839 32.256C252.17 31.6587 252.618 31.1893 253.183 30.848C253.748 30.496 254.383 30.32 255.087 30.32C255.663 30.32 256.175 30.4373 256.623 30.672C257.082 30.896 257.45 31.216 257.727 31.632C258.015 32.0373 258.191 32.512 258.255 33.056V35.408C258.191 35.952 258.015 36.432 257.727 36.848C257.45 37.264 257.082 37.5893 256.623 37.824C256.175 38.048 255.668 38.16 255.103 38.16ZM255.279 37.088C256.058 37.088 256.682 36.8267 257.151 36.304C257.631 35.7813 257.871 35.0933 257.871 34.24C257.871 33.6747 257.759 33.1787 257.535 32.752C257.322 32.3147 257.018 31.9787 256.623 31.744C256.239 31.4987 255.786 31.376 255.263 31.376C254.73 31.376 254.255 31.4987 253.839 31.744C253.434 31.9893 253.108 32.3307 252.863 32.768C252.628 33.1947 252.511 33.6853 252.511 34.24C252.511 34.7947 252.628 35.2853 252.863 35.712C253.108 36.1387 253.439 36.4747 253.855 36.72C254.271 36.9653 254.746 37.088 255.279 37.088ZM257.807 38V35.984L258.031 34.128L257.807 32.32V30.48H258.927V38H257.807ZM261.199 38V30.48H262.319V38H261.199ZM266.367 38V33.392C266.367 32.7733 266.18 32.2827 265.807 31.92C265.433 31.5467 264.964 31.36 264.399 31.36C264.015 31.36 263.663 31.4453 263.343 31.616C263.033 31.776 262.783 32.0053 262.591 32.304C262.409 32.6027 262.319 32.96 262.319 33.376L261.807 33.168C261.807 32.592 261.935 32.0907 262.191 31.664C262.447 31.2373 262.788 30.9067 263.215 30.672C263.652 30.4373 264.143 30.32 264.687 30.32C265.22 30.32 265.695 30.4373 266.111 30.672C266.537 30.9067 266.873 31.2373 267.119 31.664C267.375 32.0907 267.503 32.5973 267.503 33.184V38H266.367ZM271.551 38V33.392C271.551 32.7733 271.364 32.2827 270.991 31.92C270.617 31.5467 270.143 31.36 269.567 31.36C269.193 31.36 268.847 31.4453 268.527 31.616C268.217 31.776 267.967 32.0053 267.775 32.304C267.593 32.6027 267.503 32.96 267.503 33.376L266.831 33.168C266.863 32.592 267.012 32.0907 267.279 31.664C267.556 31.2373 267.913 30.9067 268.351 30.672C268.799 30.4373 269.289 30.32 269.823 30.32C270.356 30.32 270.836 30.4373 271.263 30.672C271.7 30.9067 272.041 31.2373 272.287 31.664C272.543 32.0907 272.671 32.5973 272.671 33.184V38H271.551ZM279.382 38V27.312H280.502V38H279.382ZM277.478 31.488V30.48H282.39V31.488H277.478ZM287.075 38.16C286.35 38.16 285.689 37.984 285.091 37.632C284.505 37.28 284.035 36.8053 283.683 36.208C283.342 35.6107 283.171 34.944 283.171 34.208C283.171 33.4827 283.342 32.8267 283.683 32.24C284.035 31.6533 284.505 31.1893 285.091 30.848C285.689 30.496 286.35 30.32 287.075 30.32C287.811 30.32 288.473 30.4907 289.059 30.832C289.646 31.1733 290.11 31.6427 290.451 32.24C290.803 32.8267 290.979 33.4827 290.979 34.208C290.979 34.9547 290.803 35.6267 290.451 36.224C290.11 36.8107 289.646 37.28 289.059 37.632C288.473 37.984 287.811 38.16 287.075 38.16ZM287.075 37.072C287.609 37.072 288.078 36.9493 288.483 36.704C288.899 36.4587 289.225 36.1173 289.459 35.68C289.705 35.2427 289.827 34.752 289.827 34.208C289.827 33.664 289.705 33.184 289.459 32.768C289.225 32.3413 288.899 32.0053 288.483 31.76C288.078 31.5147 287.609 31.392 287.075 31.392C286.553 31.392 286.083 31.5147 285.667 31.76C285.251 32.0053 284.926 32.3413 284.691 32.768C284.457 33.184 284.339 33.664 284.339 34.208C284.339 34.7627 284.457 35.2587 284.691 35.696C284.926 36.1227 285.251 36.4587 285.667 36.704C286.083 36.9493 286.553 37.072 287.075 37.072ZM2.496 64L5.936 59.456L6.336 59.296C6.18667 59.488 6.016 59.6533 5.824 59.792C5.632 59.9307 5.408 60.0373 5.152 60.112C4.896 60.1867 4.60267 60.224 4.272 60.224C3.62133 60.224 3.02933 60.064 2.496 59.744C1.96267 59.424 1.53067 58.992 1.2 58.448C0.88 57.904 0.72 57.2907 0.72 56.608C0.72 55.904 0.890667 55.2693 1.232 54.704C1.584 54.128 2.04267 53.6747 2.608 53.344C3.184 53.0027 3.824 52.832 4.528 52.832C5.24267 52.832 5.88267 52.9973 6.448 53.328C7.024 53.6587 7.47733 54.1067 7.808 54.672C8.14933 55.2373 8.32 55.8667 8.32 56.56C8.32 57.4987 7.99467 58.416 7.344 59.312L3.872 64H2.496ZM4.528 59.28C5.01867 59.28 5.46133 59.1627 5.856 58.928C6.25067 58.6933 6.56 58.3733 6.784 57.968C7.01867 57.552 7.136 57.0987 7.136 56.608C7.136 56.096 7.01867 55.6373 6.784 55.232C6.56 54.8267 6.25067 54.5067 5.856 54.272C5.46133 54.0267 5.01867 53.904 4.528 53.904C4.03733 53.904 3.59467 54.0267 3.2 54.272C2.80533 54.5067 2.49067 54.832 2.256 55.248C2.02133 55.6533 1.904 56.1067 1.904 56.608C1.904 57.0987 2.02133 57.5467 2.256 57.952C2.49067 58.3573 2.80533 58.6827 3.2 58.928C3.60533 59.1627 4.048 59.28 4.528 59.28ZM14.0709 64.16C13.4949 64.16 12.9775 64.0427 12.5189 63.808C12.0602 63.5733 11.6815 63.2533 11.3829 62.848C11.0949 62.432 10.9189 61.952 10.8549 61.408V59.056C10.9189 58.5013 11.1002 58.0213 11.3989 57.616C11.6975 57.2 12.0762 56.88 12.5349 56.656C13.0042 56.432 13.5162 56.32 14.0709 56.32C14.7642 56.32 15.3882 56.496 15.9429 56.848C16.4975 57.1893 16.9349 57.6587 17.2549 58.256C17.5855 58.8427 17.7509 59.5093 17.7509 60.256C17.7509 60.992 17.5909 61.6533 17.2709 62.24C16.9509 62.8267 16.5082 63.296 15.9429 63.648C15.3882 63.9893 14.7642 64.16 14.0709 64.16ZM13.8789 63.088C14.4122 63.088 14.8815 62.9707 15.2869 62.736C15.6922 62.4907 16.0069 62.1547 16.2309 61.728C16.4655 61.2907 16.5829 60.7947 16.5829 60.24C16.5829 59.6747 16.4655 59.1787 16.2309 58.752C16.0069 58.3253 15.6922 57.9893 15.2869 57.744C14.8815 57.4987 14.4175 57.376 13.8949 57.376C13.3722 57.376 12.9082 57.4987 12.5029 57.744C12.1082 57.9893 11.7989 58.3253 11.5749 58.752C11.3509 59.1787 11.2389 59.6747 11.2389 60.24C11.2389 60.7947 11.3509 61.2907 11.5749 61.728C11.7989 62.1547 12.1082 62.4907 12.5029 62.736C12.8975 62.9707 13.3562 63.088 13.8789 63.088ZM10.1829 67.168V56.48H11.3029V58.4L11.0789 60.224L11.3029 62.064V67.168H10.1829ZM19.5423 64V56.48H20.6623V64H19.5423ZM24.7103 64V59.392C24.7103 58.7733 24.5236 58.2827 24.1503 57.92C23.7769 57.5467 23.3076 57.36 22.7423 57.36C22.3583 57.36 22.0063 57.4453 21.6863 57.616C21.3769 57.776 21.1263 58.0053 20.9343 58.304C20.7529 58.6027 20.6623 58.96 20.6623 59.376L20.1503 59.168C20.1503 58.592 20.2783 58.0907 20.5343 57.664C20.7903 57.2373 21.1316 56.9067 21.5583 56.672C21.9956 56.4373 22.4863 56.32 23.0303 56.32C23.5636 56.32 24.0383 56.4373 24.4543 56.672C24.8809 56.9067 25.2169 57.2373 25.4623 57.664C25.7183 58.0907 25.8463 58.5973 25.8463 59.184V64H24.7103ZM29.8943 64V59.392C29.8943 58.7733 29.7076 58.2827 29.3343 57.92C28.9609 57.5467 28.4863 57.36 27.9103 57.36C27.5369 57.36 27.1903 57.4453 26.8703 57.616C26.5609 57.776 26.3103 58.0053 26.1183 58.304C25.9369 58.6027 25.8463 58.96 25.8463 59.376L25.1743 59.168C25.2063 58.592 25.3556 58.0907 25.6223 57.664C25.8996 57.2373 26.2569 56.9067 26.6943 56.672C27.1423 56.4373 27.6329 56.32 28.1663 56.32C28.6996 56.32 29.1796 56.4373 29.6063 56.672C30.0436 56.9067 30.3849 57.2373 30.6303 57.664C30.8863 58.0907 31.0143 58.5973 31.0143 59.184V64H29.8943ZM34.3044 64.16C34.0377 64.16 33.819 64.0693 33.6484 63.888C33.4777 63.7067 33.3924 63.488 33.3924 63.232C33.3924 62.976 33.4777 62.7627 33.6484 62.592C33.819 62.4107 34.0377 62.32 34.3044 62.32C34.5604 62.32 34.7737 62.4107 34.9444 62.592C35.115 62.7627 35.2004 62.976 35.2004 63.232C35.2004 63.488 35.115 63.7067 34.9444 63.888C34.7737 64.0693 34.5604 64.16 34.3044 64.16ZM41.4549 64V52.992H42.6229V64H41.4549ZM42.2229 59.024V57.952H48.1269V59.024H42.2229ZM42.2229 54.064V52.992H48.3989V54.064H42.2229ZM50.261 64V56.48H51.397V64H50.261ZM50.821 54.848C50.6077 54.848 50.4263 54.7733 50.277 54.624C50.1277 54.464 50.053 54.2773 50.053 54.064C50.053 53.84 50.1277 53.6533 50.277 53.504C50.4263 53.3547 50.6077 53.28 50.821 53.28C51.0557 53.28 51.2423 53.3547 51.381 53.504C51.5303 53.6533 51.605 53.84 51.605 54.064C51.605 54.2773 51.5303 54.464 51.381 54.624C51.2423 54.7733 51.0557 54.848 50.821 54.848ZM59.1393 64V59.584C59.1393 58.9227 58.9419 58.3893 58.5473 57.984C58.1633 57.568 57.6513 57.36 57.0113 57.36C56.5739 57.36 56.1899 57.456 55.8593 57.648C55.5286 57.84 55.2673 58.1013 55.0753 58.432C54.8833 58.7627 54.7873 59.1413 54.7873 59.568L54.2753 59.28C54.2753 58.7147 54.4086 58.208 54.6753 57.76C54.9419 57.312 55.2993 56.96 55.7473 56.704C56.2059 56.448 56.7286 56.32 57.3153 56.32C57.8913 56.32 58.4033 56.4587 58.8513 56.736C59.2993 57.0133 59.6459 57.3867 59.8913 57.856C60.1473 58.3253 60.2753 58.8373 60.2753 59.392V64H59.1393ZM53.6673 64V56.48H54.7873V64H53.6673ZM65.5704 64.16C64.877 64.16 64.253 63.9893 63.6984 63.648C63.1437 63.3067 62.701 62.8427 62.3704 62.256C62.0504 61.6587 61.8904 60.992 61.8904 60.256C61.8904 59.5093 62.0504 58.8427 62.3704 58.256C62.701 57.6587 63.1437 57.1893 63.6984 56.848C64.253 56.496 64.877 56.32 65.5704 56.32C66.1357 56.32 66.6477 56.432 67.1064 56.656C67.565 56.88 67.9437 57.2 68.2424 57.616C68.5517 58.0213 68.733 58.5013 68.7864 59.056V61.408C68.7224 61.952 68.541 62.432 68.2424 62.848C67.9544 63.2533 67.581 63.5733 67.1224 63.808C66.6637 64.0427 66.1464 64.16 65.5704 64.16ZM65.7624 63.088C66.285 63.088 66.7437 62.9707 67.1384 62.736C67.533 62.4907 67.8424 62.1547 68.0664 61.728C68.2904 61.2907 68.4024 60.7947 68.4024 60.24C68.4024 59.6747 68.285 59.1787 68.0504 58.752C67.8264 58.3253 67.517 57.9893 67.1224 57.744C66.7277 57.4987 66.269 57.376 65.7464 57.376C65.2237 57.376 64.7597 57.4987 64.3544 57.744C63.949 57.9893 63.629 58.3307 63.3944 58.768C63.1704 59.1947 63.0584 59.6853 63.0584 60.24C63.0584 60.7947 63.1704 61.2907 63.3944 61.728C63.629 62.1547 63.949 62.4907 64.3544 62.736C64.7704 62.9707 65.2397 63.088 65.7624 63.088ZM69.4584 64H68.3384V61.984L68.5624 60.128L68.3384 58.32V52.672H69.4584V64ZM78.1432 64.16C77.5353 64.16 76.9913 64.0213 76.5113 63.744C76.0313 63.456 75.6526 63.0667 75.3753 62.576C75.1086 62.0853 74.9753 61.5093 74.9753 60.848V56.48H76.1113V60.8C76.1113 61.2587 76.1913 61.6587 76.3513 62C76.5219 62.3413 76.7619 62.608 77.0713 62.8C77.3806 62.992 77.7379 63.088 78.1432 63.088C78.7726 63.088 79.2686 62.88 79.6313 62.464C80.0046 62.048 80.1913 61.4933 80.1913 60.8V56.48H81.3113V60.848C81.3113 61.4987 81.1779 62.0747 80.9113 62.576C80.6446 63.0773 80.2713 63.4667 79.7913 63.744C79.3113 64.0213 78.7619 64.16 78.1432 64.16ZM85.7056 64.16C85.3003 64.16 84.911 64.1067 84.5376 64C84.1643 63.8827 83.823 63.7227 83.5136 63.52C83.215 63.3173 82.9536 63.0773 82.7296 62.8L83.4496 62.064C83.7483 62.4267 84.0843 62.6987 84.4576 62.88C84.8416 63.0507 85.2683 63.136 85.7376 63.136C86.239 63.136 86.6283 63.04 86.9056 62.848C87.1936 62.656 87.3376 62.3893 87.3376 62.048C87.3376 61.728 87.2363 61.4773 87.0336 61.296C86.831 61.1147 86.5696 60.9707 86.2496 60.864C85.9403 60.7573 85.6096 60.656 85.2576 60.56C84.9056 60.4533 84.5696 60.3253 84.2496 60.176C83.9296 60.016 83.6683 59.7973 83.4656 59.52C83.2736 59.2427 83.1776 58.88 83.1776 58.432C83.1776 58.0053 83.279 57.6373 83.4816 57.328C83.695 57.008 83.9936 56.7627 84.3776 56.592C84.7723 56.4107 85.2363 56.32 85.7696 56.32C86.335 56.32 86.847 56.4213 87.3056 56.624C87.7643 56.8267 88.1323 57.1253 88.4096 57.52L87.6896 58.24C87.4656 57.952 87.183 57.7333 86.8416 57.584C86.511 57.424 86.1376 57.344 85.7216 57.344C85.2416 57.344 84.8736 57.44 84.6176 57.632C84.3723 57.8133 84.2496 58.0533 84.2496 58.352C84.2496 58.64 84.351 58.8693 84.5536 59.04C84.7563 59.2 85.0123 59.3333 85.3216 59.44C85.6416 59.536 85.9776 59.6373 86.3296 59.744C86.6816 59.84 87.0176 59.9733 87.3376 60.144C87.6576 60.304 87.9136 60.528 88.1056 60.816C88.3083 61.0933 88.4096 61.472 88.4096 61.952C88.4096 62.624 88.1643 63.1627 87.6736 63.568C87.1936 63.9627 86.5376 64.16 85.7056 64.16ZM96.8844 64.16C96.1697 64.16 95.5297 63.9893 94.9644 63.648C94.399 63.296 93.951 62.8267 93.6204 62.24C93.3004 61.6533 93.1404 60.992 93.1404 60.256C93.1404 59.5093 93.3004 58.8427 93.6204 58.256C93.951 57.6587 94.399 57.1893 94.9644 56.848C95.5297 56.496 96.1644 56.32 96.8684 56.32C97.4444 56.32 97.9564 56.4373 98.4044 56.672C98.863 56.896 99.231 57.216 99.5084 57.632C99.7964 58.0373 99.9724 58.512 100.036 59.056V61.408C99.9724 61.952 99.7964 62.432 99.5084 62.848C99.231 63.264 98.863 63.5893 98.4044 63.824C97.9564 64.048 97.4497 64.16 96.8844 64.16ZM97.0604 63.088C97.839 63.088 98.463 62.8267 98.9324 62.304C99.4124 61.7813 99.6524 61.0933 99.6524 60.24C99.6524 59.6747 99.5404 59.1787 99.3164 58.752C99.103 58.3147 98.799 57.9787 98.4044 57.744C98.0204 57.4987 97.567 57.376 97.0444 57.376C96.511 57.376 96.0364 57.4987 95.6204 57.744C95.215 57.9893 94.8897 58.3307 94.6444 58.768C94.4097 59.1947 94.2924 59.6853 94.2924 60.24C94.2924 60.7947 94.4097 61.2853 94.6444 61.712C94.8897 62.1387 95.2204 62.4747 95.6364 62.72C96.0524 62.9653 96.527 63.088 97.0604 63.088ZM99.5884 64V61.984L99.8124 60.128L99.5884 58.32V56.48H100.708V64H99.5884ZM104.085 64V53.312H105.205V64H104.085ZM102.181 57.488V56.48H107.093V57.488H102.181ZM113.434 64L116.874 59.456L117.274 59.296C117.124 59.488 116.954 59.6533 116.762 59.792C116.57 59.9307 116.346 60.0373 116.09 60.112C115.834 60.1867 115.54 60.224 115.21 60.224C114.559 60.224 113.967 60.064 113.434 59.744C112.9 59.424 112.468 58.992 112.138 58.448C111.818 57.904 111.658 57.2907 111.658 56.608C111.658 55.904 111.828 55.2693 112.17 54.704C112.522 54.128 112.98 53.6747 113.546 53.344C114.122 53.0027 114.762 52.832 115.466 52.832C116.18 52.832 116.82 52.9973 117.386 53.328C117.962 53.6587 118.415 54.1067 118.746 54.672C119.087 55.2373 119.258 55.8667 119.258 56.56C119.258 57.4987 118.932 58.416 118.282 59.312L114.81 64H113.434ZM115.466 59.28C115.956 59.28 116.399 59.1627 116.794 58.928C117.188 58.6933 117.498 58.3733 117.722 57.968C117.956 57.552 118.074 57.0987 118.074 56.608C118.074 56.096 117.956 55.6373 117.722 55.232C117.498 54.8267 117.188 54.5067 116.794 54.272C116.399 54.0267 115.956 53.904 115.466 53.904C114.975 53.904 114.532 54.0267 114.138 54.272C113.743 54.5067 113.428 54.832 113.194 55.248C112.959 55.6533 112.842 56.1067 112.842 56.608C112.842 57.0987 112.959 57.5467 113.194 57.952C113.428 58.3573 113.743 58.6827 114.138 58.928C114.543 59.1627 114.986 59.28 115.466 59.28ZM122.48 64L125.92 59.456L126.32 59.296C126.171 59.488 126 59.6533 125.808 59.792C125.616 59.9307 125.392 60.0373 125.136 60.112C124.88 60.1867 124.587 60.224 124.256 60.224C123.606 60.224 123.014 60.064 122.48 59.744C121.947 59.424 121.515 58.992 121.184 58.448C120.864 57.904 120.704 57.2907 120.704 56.608C120.704 55.904 120.875 55.2693 121.216 54.704C121.568 54.128 122.027 53.6747 122.592 53.344C123.168 53.0027 123.808 52.832 124.512 52.832C125.227 52.832 125.867 52.9973 126.432 53.328C127.008 53.6587 127.462 54.1067 127.792 54.672C128.134 55.2373 128.304 55.8667 128.304 56.56C128.304 57.4987 127.979 58.416 127.328 59.312L123.856 64H122.48ZM124.512 59.28C125.003 59.28 125.446 59.1627 125.84 58.928C126.235 58.6933 126.544 58.3733 126.768 57.968C127.003 57.552 127.12 57.0987 127.12 56.608C127.12 56.096 127.003 55.6373 126.768 55.232C126.544 54.8267 126.235 54.5067 125.84 54.272C125.446 54.0267 125.003 53.904 124.512 53.904C124.022 53.904 123.579 54.0267 123.184 54.272C122.79 54.5067 122.475 54.832 122.24 55.248C122.006 55.6533 121.888 56.1067 121.888 56.608C121.888 57.0987 122.006 57.5467 122.24 57.952C122.475 58.3573 122.79 58.6827 123.184 58.928C123.59 59.1627 124.032 59.28 124.512 59.28ZM140.853 64L134.837 58.256L140.725 52.992H142.293L136.021 58.576L136.037 57.904L142.453 64H140.853ZM133.877 64V52.992H135.045V64H133.877ZM144.152 64V56.48H145.288V64H144.152ZM144.712 54.848C144.498 54.848 144.317 54.7733 144.168 54.624C144.018 54.464 143.944 54.2773 143.944 54.064C143.944 53.84 144.018 53.6533 144.168 53.504C144.317 53.3547 144.498 53.28 144.712 53.28C144.946 53.28 145.133 53.3547 145.272 53.504C145.421 53.6533 145.496 53.84 145.496 54.064C145.496 54.2773 145.421 54.464 145.272 54.624C145.133 54.7733 144.946 54.848 144.712 54.848ZM153.03 64V59.584C153.03 58.9227 152.833 58.3893 152.438 57.984C152.054 57.568 151.542 57.36 150.902 57.36C150.465 57.36 150.081 57.456 149.75 57.648C149.419 57.84 149.158 58.1013 148.966 58.432C148.774 58.7627 148.678 59.1413 148.678 59.568L148.166 59.28C148.166 58.7147 148.299 58.208 148.566 57.76C148.833 57.312 149.19 56.96 149.638 56.704C150.097 56.448 150.619 56.32 151.206 56.32C151.782 56.32 152.294 56.4587 152.742 56.736C153.19 57.0133 153.537 57.3867 153.782 57.856C154.038 58.3253 154.166 58.8373 154.166 59.392V64H153.03ZM147.558 64V56.48H148.678V64H147.558ZM159.365 67.328C158.608 67.328 157.93 67.184 157.333 66.896C156.746 66.6187 156.272 66.224 155.909 65.712L156.645 64.976C156.944 65.3813 157.322 65.696 157.781 65.92C158.24 66.144 158.778 66.256 159.397 66.256C160.25 66.256 160.928 66.0267 161.429 65.568C161.941 65.1093 162.197 64.4853 162.197 63.696V61.824L162.421 60.112L162.197 58.416V56.48H163.317V63.696C163.317 64.4213 163.152 65.056 162.821 65.6C162.49 66.144 162.026 66.5653 161.429 66.864C160.842 67.1733 160.154 67.328 159.365 67.328ZM159.445 63.92C158.752 63.92 158.128 63.7547 157.573 63.424C157.018 63.0933 156.581 62.64 156.261 62.064C155.941 61.488 155.781 60.8373 155.781 60.112C155.781 59.3867 155.936 58.7413 156.245 58.176C156.565 57.6 157.002 57.1467 157.557 56.816C158.112 56.4853 158.736 56.32 159.429 56.32C160.016 56.32 160.538 56.432 160.997 56.656C161.466 56.88 161.84 57.2 162.117 57.616C162.405 58.0213 162.581 58.5013 162.645 59.056V61.184C162.581 61.728 162.405 62.208 162.117 62.624C161.829 63.0293 161.456 63.3493 160.997 63.584C160.538 63.808 160.021 63.92 159.445 63.92ZM159.653 62.848C160.176 62.848 160.629 62.736 161.013 62.512C161.408 62.288 161.712 61.9733 161.925 61.568C162.149 61.152 162.261 60.6667 162.261 60.112C162.261 59.568 162.149 59.0933 161.925 58.688C161.712 58.2827 161.408 57.9627 161.013 57.728C160.618 57.4933 160.16 57.376 159.637 57.376C159.114 57.376 158.645 57.4933 158.229 57.728C157.824 57.9627 157.504 58.2827 157.269 58.688C157.045 59.0933 156.933 59.568 156.933 60.112C156.933 60.6453 157.05 61.12 157.285 61.536C157.52 61.952 157.84 62.2773 158.245 62.512C158.65 62.736 159.12 62.848 159.653 62.848ZM172.323 64.16C171.47 64.16 170.734 64 170.115 63.68C169.496 63.3493 168.952 62.8907 168.483 62.304L169.299 61.504C169.672 62.0267 170.104 62.416 170.595 62.672C171.096 62.928 171.688 63.056 172.371 63.056C173.075 63.056 173.646 62.896 174.083 62.576C174.52 62.256 174.739 61.8133 174.739 61.248C174.739 60.8107 174.638 60.4533 174.435 60.176C174.232 59.888 173.966 59.6587 173.635 59.488C173.315 59.3067 172.958 59.1467 172.563 59.008C172.168 58.8693 171.774 58.7253 171.379 58.576C170.995 58.416 170.638 58.2187 170.307 57.984C169.976 57.7493 169.71 57.4507 169.507 57.088C169.315 56.7253 169.219 56.2613 169.219 55.696C169.219 55.0987 169.363 54.5867 169.651 54.16C169.939 53.7333 170.334 53.408 170.835 53.184C171.336 52.9493 171.907 52.832 172.547 52.832C173.262 52.832 173.896 52.9707 174.451 53.248C175.016 53.5253 175.486 53.8987 175.859 54.368L175.059 55.168C174.718 54.7627 174.344 54.4533 173.939 54.24C173.534 54.0267 173.059 53.92 172.515 53.92C171.875 53.92 171.363 54.0693 170.979 54.368C170.595 54.6667 170.403 55.0827 170.403 55.616C170.403 56.032 170.499 56.368 170.691 56.624C170.894 56.88 171.16 57.0933 171.491 57.264C171.822 57.4347 172.179 57.5893 172.563 57.728C172.958 57.856 173.352 58 173.747 58.16C174.142 58.32 174.499 58.5227 174.819 58.768C175.15 59.0133 175.416 59.328 175.619 59.712C175.822 60.0853 175.923 60.5653 175.923 61.152C175.923 62.1013 175.598 62.8427 174.947 63.376C174.307 63.8987 173.432 64.16 172.323 64.16ZM179.038 64V53.312H180.158V64H179.038ZM177.134 57.488V56.48H182.046V57.488H177.134ZM183.589 64V56.48H184.709V64H183.589ZM184.709 59.616L184.245 59.408C184.245 58.4587 184.474 57.7067 184.933 57.152C185.402 56.5973 186.042 56.32 186.853 56.32C187.226 56.32 187.568 56.3893 187.877 56.528C188.186 56.656 188.474 56.864 188.741 57.152L188.005 57.936C187.824 57.7333 187.621 57.5893 187.397 57.504C187.184 57.4187 186.938 57.376 186.661 57.376C186.085 57.376 185.616 57.568 185.253 57.952C184.89 58.3253 184.709 58.88 184.709 59.616ZM193.139 64.16C192.382 64.16 191.705 63.9893 191.107 63.648C190.51 63.3067 190.035 62.8373 189.683 62.24C189.342 61.6427 189.171 60.9707 189.171 60.224C189.171 59.488 189.342 58.8267 189.683 58.24C190.025 57.6427 190.489 57.1733 191.075 56.832C191.662 56.4907 192.318 56.32 193.043 56.32C193.726 56.32 194.329 56.4747 194.851 56.784C195.385 57.0933 195.801 57.5253 196.099 58.08C196.409 58.624 196.563 59.2533 196.563 59.968C196.563 60.0533 196.558 60.1547 196.547 60.272C196.537 60.3787 196.515 60.5067 196.483 60.656H189.971V59.696H195.875L195.475 60.048C195.486 59.4933 195.39 59.0187 195.187 58.624C194.995 58.2187 194.713 57.9093 194.339 57.696C193.977 57.472 193.534 57.36 193.011 57.36C192.467 57.36 191.993 57.4773 191.587 57.712C191.182 57.9467 190.862 58.2773 190.627 58.704C190.403 59.12 190.291 59.616 190.291 60.192C190.291 60.768 190.409 61.2747 190.643 61.712C190.889 62.1493 191.225 62.4907 191.651 62.736C192.089 62.9813 192.59 63.104 193.155 63.104C193.614 63.104 194.035 63.024 194.419 62.864C194.803 62.6933 195.129 62.4427 195.395 62.112L196.115 62.848C195.763 63.264 195.326 63.5893 194.803 63.824C194.291 64.048 193.737 64.16 193.139 64.16ZM201.749 64.16C200.991 64.16 200.314 63.9893 199.717 63.648C199.119 63.3067 198.645 62.8373 198.293 62.24C197.951 61.6427 197.781 60.9707 197.781 60.224C197.781 59.488 197.951 58.8267 198.293 58.24C198.634 57.6427 199.098 57.1733 199.685 56.832C200.271 56.4907 200.927 56.32 201.653 56.32C202.335 56.32 202.938 56.4747 203.461 56.784C203.994 57.0933 204.41 57.5253 204.709 58.08C205.018 58.624 205.173 59.2533 205.173 59.968C205.173 60.0533 205.167 60.1547 205.157 60.272C205.146 60.3787 205.125 60.5067 205.093 60.656H198.581V59.696H204.485L204.085 60.048C204.095 59.4933 203.999 59.0187 203.797 58.624C203.605 58.2187 203.322 57.9093 202.949 57.696C202.586 57.472 202.143 57.36 201.621 57.36C201.077 57.36 200.602 57.4773 200.197 57.712C199.791 57.9467 199.471 58.2773 199.237 58.704C199.013 59.12 198.901 59.616 198.901 60.192C198.901 60.768 199.018 61.2747 199.253 61.712C199.498 62.1493 199.834 62.4907 200.261 62.736C200.698 62.9813 201.199 63.104 201.765 63.104C202.223 63.104 202.645 63.024 203.029 62.864C203.413 62.6933 203.738 62.4427 204.005 62.112L204.725 62.848C204.373 63.264 203.935 63.5893 203.413 63.824C202.901 64.048 202.346 64.16 201.749 64.16ZM207.788 64V53.312H208.908V64H207.788ZM205.884 57.488V56.48H210.796V57.488H205.884ZM211.952 65.648L212.864 63.872L213.264 63.776C213.222 63.872 213.163 63.952 213.088 64.016C213.014 64.0907 212.923 64.128 212.816 64.128C212.614 64.128 212.427 64.048 212.256 63.888C212.096 63.7173 212.016 63.5093 212.016 63.264C212.016 63.008 212.107 62.7893 212.288 62.608C212.47 62.416 212.688 62.32 212.944 62.32C213.19 62.32 213.403 62.416 213.584 62.608C213.776 62.7893 213.872 63.008 213.872 63.264C213.872 63.3707 213.851 63.4987 213.808 63.648C213.776 63.7867 213.702 63.9733 213.584 64.208L212.624 66.016L211.952 65.648ZM219.892 64V52.992H220.724L221.06 54.384V64H219.892ZM227.508 64L220.548 54.56L220.724 52.992L227.668 62.432L227.508 64ZM227.508 64L227.156 62.672V52.992H228.34V64H227.508ZM234.342 64.16C233.585 64.16 232.908 63.9893 232.31 63.648C231.713 63.3067 231.238 62.8373 230.886 62.24C230.545 61.6427 230.374 60.9707 230.374 60.224C230.374 59.488 230.545 58.8267 230.886 58.24C231.228 57.6427 231.692 57.1733 232.278 56.832C232.865 56.4907 233.521 56.32 234.246 56.32C234.929 56.32 235.532 56.4747 236.054 56.784C236.588 57.0933 237.004 57.5253 237.302 58.08C237.612 58.624 237.766 59.2533 237.766 59.968C237.766 60.0533 237.761 60.1547 237.75 60.272C237.74 60.3787 237.718 60.5067 237.686 60.656H231.174V59.696H237.078L236.678 60.048C236.689 59.4933 236.593 59.0187 236.39 58.624C236.198 58.2187 235.916 57.9093 235.542 57.696C235.18 57.472 234.737 57.36 234.214 57.36C233.67 57.36 233.196 57.4773 232.79 57.712C232.385 57.9467 232.065 58.2773 231.83 58.704C231.606 59.12 231.494 59.616 231.494 60.192C231.494 60.768 231.612 61.2747 231.846 61.712C232.092 62.1493 232.428 62.4907 232.854 62.736C233.292 62.9813 233.793 63.104 234.358 63.104C234.817 63.104 235.238 63.024 235.622 62.864C236.006 62.6933 236.332 62.4427 236.598 62.112L237.318 62.848C236.966 63.264 236.529 63.5893 236.006 63.824C235.494 64.048 234.94 64.16 234.342 64.16ZM241.482 64L238.586 56.48H239.754L242.042 62.72L241.626 62.736L243.898 56.48H244.554L246.826 62.736L246.41 62.72L248.682 56.48H249.866L246.954 64H246.298L243.978 57.84H244.458L242.154 64H241.482ZM255.212 64.16C254.636 64.16 254.118 64.0427 253.66 63.808C253.201 63.5733 252.822 63.2533 252.524 62.848C252.236 62.432 252.06 61.952 251.996 61.408V59.056C252.06 58.5013 252.241 58.0213 252.539 57.616C252.838 57.2 253.217 56.88 253.676 56.656C254.145 56.432 254.657 56.32 255.212 56.32C255.905 56.32 256.529 56.496 257.084 56.848C257.638 57.1893 258.076 57.6587 258.396 58.256C258.726 58.8427 258.892 59.5093 258.892 60.256C258.892 60.992 258.732 61.6533 258.411 62.24C258.092 62.8267 257.649 63.296 257.084 63.648C256.529 63.9893 255.905 64.16 255.212 64.16ZM255.02 63.088C255.553 63.088 256.022 62.9707 256.428 62.736C256.833 62.4907 257.148 62.1547 257.372 61.728C257.606 61.2907 257.724 60.7947 257.724 60.24C257.724 59.6747 257.606 59.1787 257.372 58.752C257.148 58.3253 256.833 57.9893 256.428 57.744C256.022 57.4987 255.558 57.376 255.036 57.376C254.513 57.376 254.049 57.4987 253.644 57.744C253.249 57.9893 252.94 58.3253 252.716 58.752C252.492 59.1787 252.38 59.6747 252.38 60.24C252.38 60.7947 252.492 61.2907 252.716 61.728C252.94 62.1547 253.249 62.4907 253.644 62.736C254.038 62.9707 254.497 63.088 255.02 63.088ZM251.324 67.168V56.48H252.444V58.4L252.22 60.224L252.444 62.064V67.168H251.324ZM264.091 64.16C263.366 64.16 262.704 63.984 262.107 63.632C261.52 63.28 261.051 62.8053 260.699 62.208C260.358 61.6107 260.187 60.944 260.187 60.208C260.187 59.4827 260.358 58.8267 260.699 58.24C261.051 57.6533 261.52 57.1893 262.107 56.848C262.704 56.496 263.366 56.32 264.091 56.32C264.827 56.32 265.488 56.4907 266.075 56.832C266.662 57.1733 267.126 57.6427 267.467 58.24C267.819 58.8267 267.995 59.4827 267.995 60.208C267.995 60.9547 267.819 61.6267 267.467 62.224C267.126 62.8107 266.662 63.28 266.075 63.632C265.488 63.984 264.827 64.16 264.091 64.16ZM264.091 63.072C264.624 63.072 265.094 62.9493 265.499 62.704C265.915 62.4587 266.24 62.1173 266.475 61.68C266.72 61.2427 266.843 60.752 266.843 60.208C266.843 59.664 266.72 59.184 266.475 58.768C266.24 58.3413 265.915 58.0053 265.499 57.76C265.094 57.5147 264.624 57.392 264.091 57.392C263.568 57.392 263.099 57.5147 262.683 57.76C262.267 58.0053 261.942 58.3413 261.707 58.768C261.472 59.184 261.355 59.664 261.355 60.208C261.355 60.7627 261.472 61.2587 261.707 61.696C261.942 62.1227 262.267 62.4587 262.683 62.704C263.099 62.9493 263.568 63.072 264.091 63.072ZM269.777 64V56.48H270.897V64H269.777ZM270.897 59.616L270.433 59.408C270.433 58.4587 270.662 57.7067 271.121 57.152C271.59 56.5973 272.23 56.32 273.041 56.32C273.414 56.32 273.755 56.3893 274.065 56.528C274.374 56.656 274.662 56.864 274.929 57.152L274.193 57.936C274.011 57.7333 273.809 57.5893 273.585 57.504C273.371 57.4187 273.126 57.376 272.849 57.376C272.273 57.376 271.803 57.568 271.441 57.952C271.078 58.3253 270.897 58.88 270.897 59.616ZM277.21 64V53.312H278.33V64H277.21ZM275.306 57.488V56.48H280.218V57.488H275.306ZM281.374 65.648L282.286 63.872L282.686 63.776C282.643 63.872 282.585 63.952 282.51 64.016C282.435 64.0907 282.345 64.128 282.238 64.128C282.035 64.128 281.849 64.048 281.678 63.888C281.518 63.7173 281.438 63.5093 281.438 63.264C281.438 63.008 281.529 62.7893 281.71 62.608C281.891 62.416 282.11 62.32 282.366 62.32C282.611 62.32 282.825 62.416 283.006 62.608C283.198 62.7893 283.294 63.008 283.294 63.264C283.294 63.3707 283.273 63.4987 283.23 63.648C283.198 63.7867 283.123 63.9733 283.006 64.208L282.046 66.016L281.374 65.648ZM5.424 90.16C4.624 90.16 3.90933 89.984 3.28 89.632C2.66133 89.2693 2.17067 88.7787 1.808 88.16C1.44533 87.5307 1.264 86.8267 1.264 86.048V78.992H2.448V85.984C2.448 86.6027 2.576 87.1413 2.832 87.6C3.088 88.0587 3.44 88.4107 3.888 88.656C4.34667 88.9013 4.85867 89.024 5.424 89.024C5.98933 89.024 6.49067 88.9013 6.928 88.656C7.376 88.4107 7.728 88.064 7.984 87.616C8.25067 87.1573 8.384 86.6187 8.384 86V78.992H9.552V86.064C9.552 86.8427 9.37067 87.5413 9.008 88.16C8.656 88.7787 8.16533 89.2693 7.536 89.632C6.91733 89.984 6.21333 90.16 5.424 90.16ZM15.1355 90.16C14.2822 90.16 13.5462 90 12.9275 89.68C12.3088 89.3493 11.7648 88.8907 11.2955 88.304L12.1115 87.504C12.4848 88.0267 12.9168 88.416 13.4075 88.672C13.9088 88.928 14.5008 89.056 15.1835 89.056C15.8875 89.056 16.4582 88.896 16.8955 88.576C17.3328 88.256 17.5515 87.8133 17.5515 87.248C17.5515 86.8107 17.4502 86.4533 17.2475 86.176C17.0448 85.888 16.7782 85.6587 16.4475 85.488C16.1275 85.3067 15.7702 85.1467 15.3755 85.008C14.9808 84.8693 14.5862 84.7253 14.1915 84.576C13.8075 84.416 13.4502 84.2187 13.1195 83.984C12.7888 83.7493 12.5222 83.4507 12.3195 83.088C12.1275 82.7253 12.0315 82.2613 12.0315 81.696C12.0315 81.0987 12.1755 80.5867 12.4635 80.16C12.7515 79.7333 13.1462 79.408 13.6475 79.184C14.1488 78.9493 14.7195 78.832 15.3595 78.832C16.0742 78.832 16.7088 78.9707 17.2635 79.248C17.8288 79.5253 18.2982 79.8987 18.6715 80.368L17.8715 81.168C17.5302 80.7627 17.1568 80.4533 16.7515 80.24C16.3462 80.0267 15.8715 79.92 15.3275 79.92C14.6875 79.92 14.1755 80.0693 13.7915 80.368C13.4075 80.6667 13.2155 81.0827 13.2155 81.616C13.2155 82.032 13.3115 82.368 13.5035 82.624C13.7062 82.88 13.9728 83.0933 14.3035 83.264C14.6342 83.4347 14.9915 83.5893 15.3755 83.728C15.7702 83.856 16.1648 84 16.5595 84.16C16.9542 84.32 17.3115 84.5227 17.6315 84.768C17.9622 85.0133 18.2288 85.328 18.4315 85.712C18.6342 86.0853 18.7355 86.5653 18.7355 87.152C18.7355 88.1013 18.4102 88.8427 17.7595 89.376C17.1195 89.8987 16.2448 90.16 15.1355 90.16ZM19.7639 90L24.2759 78.992H25.1559L29.6199 90H28.3559L24.4679 80.272H24.9319L21.0119 90H19.7639ZM21.8279 87.136V86.096H27.5879V87.136H21.8279ZM32.5388 90.16C32.2721 90.16 32.0534 90.0693 31.8828 89.888C31.7121 89.7067 31.6268 89.488 31.6268 89.232C31.6268 88.976 31.7121 88.7627 31.8828 88.592C32.0534 88.4107 32.2721 88.32 32.5388 88.32C32.7948 88.32 33.0081 88.4107 33.1788 88.592C33.3494 88.7627 33.4348 88.976 33.4348 89.232C33.4348 89.488 33.3494 89.7067 33.1788 89.888C33.0081 90.0693 32.7948 90.16 32.5388 90.16Z" fill="#151515"/>
</svg>
